<?xml version="1.0" encoding="iso-8859-1"?>
<!-- Generator: Adobe Illustrator 16.0.0, SVG Export Plug-In . SVG Version: 6.00 Build 0)  -->
<!DOCTYPE svg PUBLIC "-//W3C//DTD SVG 1.1//EN" "http://www.w3.org/Graphics/SVG/1.1/DTD/svg11.dtd">
<svg version="1.1" id="Capa_1" xmlns="http://www.w3.org/2000/svg" xmlns:xlink="http://www.w3.org/1999/xlink" x="0px" y="0px"
	 width="580.023px" height="580.024px" viewBox="0 0 580.023 580.024" style="enable-background:new 0 0 580.023 580.024;"
	 xml:space="preserve">
<g>
	<path d="M577.731,228.699c-0.971-1.501-1.473-3.305-2.211-4.961c-2.75-6.186-5.035-7.54-11.763-7.263
		c-1.392,0.057-2.889-0.118-4.187-0.596c-11.093-4.084-22.655-4.345-34.264-4.378c-18.878-0.053-36.609,5.732-54.391,10.976
		c-21.073,6.214-42.583,10.359-64.157,14.117c-11.196,1.95-22.652,2.333-33.962,3.692c-13.966,1.677-27.928,3.431-41.841,5.52
		c-16.36,2.46-32.763,2.688-49.266,2.473c-24.084-0.311-48.14,0.914-71.392,7.956c-16.079,4.867-32.387,8.458-48.939,11.073
		c-17.308,2.733-34.668,4.994-52.179,6.002c-15.871,0.913-31.747,1.722-47.593,2.957c-10.861,0.85-21.567,2.493-32.118,5.758
		c-7.303,2.26-15.275,2.354-22.95,3.419c-1.518,0.208-3.06,0.313-4.537,0.673c-0.387,0.094-0.747,0.311-1.097,0.555
		c-0.559,0.388-0.947,0.922-0.877,1.188s0.979,0.498,2.028,0.514c0.632,0.013,1.265,0.009,1.893-0.049
		c12.672-1.13,25.37-2.052,38.005-3.517c12.999-1.506,26.002-1.62,39.017-0.963c22.575,1.139,45.157,2.211,67.695,3.88
		c15.259,1.13,30.375,3.512,45.223,7.547c3.28,0.894,6.675,1.465,10.09,1.894c2.309,1.102,4.811,1.542,7.356,2.101
		c2.089,0.457,3.77,1.51,5.161,2.909c1.644,2.673,2.362,5.369,5.381,7.148c0.159,0.094,0.31,0.09,0.465,0.159
		c0.571,0.448,1.232,0.812,2.084,0.926c3.125,0.408,5.329,3.66,7.295,5.798c1.656,1.8,3.586,3.228,5.72,4.406
		c1.334,0.734,2.762,1.176,4.214,1.493c-0.139,4.933-0.277,9.861-0.534,14.786c-0.249,4.733-1.539,9.417-2.481,14.101
		c-0.722,3.591-1.575,7.152-2.489,11.135c-0.253,1.097-0.057,2.346,0.433,2.786c0.489,0.44,1.795,0.771,2.921,0.734
		c3.933-0.122,12.272-0.416,13.292-0.706c0.404-0.114,0.743-0.244,1.016-0.362c0.546-0.241,0.828-1.47,0.342-2.485
		c-0.689-1.44-1.832-2.28-3.354-2.644c-1.098-0.262-1.873-1.114-1.701-2.228c0.126-0.833,0.273-1.616,0.559-2.347
		c2.787-7.074,3.672-15.112,10.4-20.225c1.118-0.849,1.628-2.554,2.301-3.925c0.62-1.265,1.179-2.562,1.803-3.998
		c0.449-1.032,1.526-1.285,2.485-0.689c5.104,3.183,10.734,2.913,16.202,2.383c20.714-2.016,41.282-4.855,60.384-13.938
		c0.473-0.225,0.967-0.404,1.51-0.592c0.844-0.289,1.46,0.384,1.375,1.506c-0.184,2.411-0.355,4.578-0.486,6.744
		c-0.424,7.205-2.015,14.419,0.927,21.53c1.566,3.786,2.893,7.679,4.157,11.583c0.347,1.073,0.306,2.799-0.004,3.884
		c-0.343,1.212-0.723,2.815-0.828,4.312c-0.078,1.127-0.094,2.424-0.302,2.909c-0.213,0.485,0.51,1.081,1.615,1.29
		c2.477,0.469,6.667,1.126,9.115,0.738c3.639-0.575,6.707-0.147,9.008,0.118c2.302,0.265,0.616-3.488-1.95-3.864
		c-1.628-0.236-2.566-0.946-2.574-2.721c-0.008-1.787,0.073-3.595-0.146-5.357c-0.47-3.782-1.094-7.544-1.673-11.31
		c-1.918-12.411-2.881-24.893-2.656-37.45c0.024-1.339,0.538-2.856,1.31-3.954c2.191-3.129,4.668-6.055,6.952-9.118
		c0.849-1.143,1.853-2.362,2.146-3.688c0.999-4.492,4.382-5.561,8.185-6.165c9.918-1.57,19.845-3.072,29.751-4.696
		c14.46-2.366,28.898-4.957,42.396-10.946c5.749-2.555,11.212-5.79,16.695-8.907c15.255-8.678,31.175-15.977,47.479-22.366
		c5.333-2.089,11.306-3.207,17.042-3.456c8.083-0.351,16.255,0.139,24.313,0.996c5.626,0.6,11.134,2.366,16.671,3.713
		c0.714,0.175,1.403,0.453,2.085,0.763c1.027,0.461,2.427,0.118,3.043-0.828C580.812,235.403,580.506,233.004,577.731,228.699z"/>
</g>
<g>
</g>
<g>
</g>
<g>
</g>
<g>
</g>
<g>
</g>
<g>
</g>
<g>
</g>
<g>
</g>
<g>
</g>
<g>
</g>
<g>
</g>
<g>
</g>
<g>
</g>
<g>
</g>
<g>
</g>
</svg>
