<?xml version="1.0" encoding="iso-8859-1"?>
<!-- Generator: Adobe Illustrator 16.0.0, SVG Export Plug-In . SVG Version: 6.00 Build 0)  -->
<!DOCTYPE svg PUBLIC "-//W3C//DTD SVG 1.1//EN" "http://www.w3.org/Graphics/SVG/1.1/DTD/svg11.dtd">
<svg version="1.1" id="Capa_1" xmlns="http://www.w3.org/2000/svg" xmlns:xlink="http://www.w3.org/1999/xlink" x="0px" y="0px"
	 width="586.025px" height="586.025px" viewBox="0 0 586.025 586.025" style="enable-background:new 0 0 586.025 586.025;"
	 xml:space="preserve">
<g>
	<g>
		<path d="M584.307,307.105c-10.477-3.496-19.629-6.552-30.041-10.024c-2.138-0.714-2.941-2.864-1.803-4.81
			c6.598-11.241,13.056-22.249,20.008-34.101c1.139-1.942,0.47-4.407-1.489-5.524c-4.459-2.551-9.155-5.312-14.051-7.65
			c-24.925-11.901-49.625-24.354-75.031-35.121c-21.094-8.938-42.734-16.973-64.767-23.149
			c-12.762-3.578-22.366-9.151-31.269-18.907c-8.552-9.367-19.147-16.866-29.523-25.267c-1.75-1.42-4.39-1.245-5.911,0.416
			c-0.923,1.008-1.763,1.926-2.587,2.823c-1.522,1.66-4.354,2.134-6.328,1.049c-1.514-0.828-2.982-1.633-4.342-2.375
			c-1.979-1.081-5.328-1.44-7.507-0.856c-3.938,1.053-7.401,1.896-10.559,3.382c-3.37,1.583-6.431,3.831-10.221,6.45
			c-1.853,1.281-4.933,1.494-6.851,0.526c-1.917-0.967-5.01-0.767-6.899,0.457c-12.003,7.765-22.999,14.921-34.076,21.951
			c-2.648,1.681-5.675,2.754-8.486,4.189c-8.062,4.121-14.554,12.334-25.859,6.65c-4.178-2.101-11.318-1.252-15.887,0.873
			c-18.972,8.821-37.516,18.568-56.108,28.185c-2.917,1.51-6.785,3.615-7.613,6.264c-2.746,8.764-6.887,18.274-5.659,26.806
			c1.509,10.497,12.791,8.466,20.951,8.894c2.309,0.123,4.631-0.069,6.96-0.285c2.244-0.208,2.53,0.657,0.542,1.722
			c-10.755,5.745-22.248,6.679-32.946,0.196c-22.893-13.868-45.247-28.65-67.544-43.469c-14.011-9.311-27.618-19.225-41.318-28.907
			c-1.84-1.301-3.101-0.534-2.803,1.697c4.047,30.262,9.718,58.622,10.473,87.112c0.796,29.902-20.963,51.791-35.32,77.748
			c-1.089,1.971-0.094,3.64,2.158,3.615c25.341-0.302,47.597-8.201,69.495-17.548c5.01-2.138,10.098-4.337,14.627-7.304
			c34.395-22.525,69.984-18.845,106.08-5.173c0.636,0.24,1.15,0.791,2.02,1.693c1.02,1.057,0.085,2.154-2.134,2.541
			c-2.338,0.408-4.292,0.751-6.259,0.854c-16.316,0.849-22.934,7.246-23.468,22.921c-0.453,13.17,7.952,23.097,22.538,23.231
			c10.673,0.099,21.44-2.921,32.04-5.133c5.757-1.199,11.363-3.137,17.977-5.206c2.15-0.673,3.26,0.515,2.468,2.624
			c-0.184,0.493-0.359,0.954-0.526,1.396c-0.792,2.109-1,4.268-0.465,4.818c0.534,0.551,2.375-0.168,4.076-1.645
			c5.5-4.781,10.845-9.816,16.948-13.627c5.545-3.464,13.668-8.181,18.544-6.442c26.254,9.355,53,7.226,79.817,6.315
			c1.203-0.04,2.415,0.078,4.112,0.253c2.24,0.232,2.926,1.824,1.612,3.652c-1.82,2.533-3.248,4.63-5.174,6.055
			c-11.146,8.245-10.526,18.2-4.565,28.841c7.593,13.559,15.463,26.957,24.276,42.204c1.13,1.95,2.921,1.93,3.933-0.082
			c12.95-25.798,15.186-53.383,18.445-83.162c0.245-2.24,2.281-4.076,4.533-4.117c62.008-1.118,122.787-11.199,181.123-45.161
			C586.612,309.338,586.445,307.819,584.307,307.105z"/>
	</g>
</g>
<g>
</g>
<g>
</g>
<g>
</g>
<g>
</g>
<g>
</g>
<g>
</g>
<g>
</g>
<g>
</g>
<g>
</g>
<g>
</g>
<g>
</g>
<g>
</g>
<g>
</g>
<g>
</g>
<g>
</g>
</svg>
