<?xml version="1.0" encoding="iso-8859-1"?>
<!-- Generator: Adobe Illustrator 16.0.0, SVG Export Plug-In . SVG Version: 6.00 Build 0)  -->
<!DOCTYPE svg PUBLIC "-//W3C//DTD SVG 1.1//EN" "http://www.w3.org/Graphics/SVG/1.1/DTD/svg11.dtd">
<svg version="1.1" id="Capa_1" xmlns="http://www.w3.org/2000/svg" xmlns:xlink="http://www.w3.org/1999/xlink" x="0px" y="0px"
	 width="584.222px" height="584.222px" viewBox="0 0 584.222 584.222" style="enable-background:new 0 0 584.222 584.222;"
	 xml:space="preserve">
<g>
	<g>
		<path d="M582.002,271.021c-1.057-0.437-2.109-0.886-3.158-1.334c-3.594-1.53-7.312-3.109-11.122-4.248
			c-14.598-4.357-29.845-5.528-44.594-6.658c-4.884-0.375-9.936-0.763-14.88-1.261c-6.438-0.648-12.885-1.208-19.335-1.767
			c-13.538-1.171-27.54-2.378-41.159-4.456c-12.868-1.958-26.365-4.61-37.475-13.452c-0.159-0.126-0.249-0.286-0.245-0.44
			c0.004-0.155,0.09-0.31,0.253-0.433c0.506-0.388,1.02-0.767,1.53-1.143c3.79-2.803,7.711-5.695,8.38-11.44
			c0.563-4.872-1.371-7.736-6.1-9.009c-27.356-7.397-56.667-11.146-87.124-11.146c-8.838,0-17.969,0.314-27.141,0.93
			c-5.03,0.339-10.13,0.547-15.532,0.767l-6.312,0.257c-0.22,0-0.412-0.077-0.542-0.22c-0.13-0.143-0.188-0.334-0.171-0.551
			l0.22-2.403c0.318-3.312,0.616-6.442,0.351-9.608c-0.306-3.712-1.481-7.593-3.305-10.922c-1.542-2.811-3.578-5.361-5.553-7.826
			l-1.338-1.681c-0.873-1.11-2.579-1.946-3.97-1.946c-1.109,0-2.954,0.163-4.121,0.428c-17.479,4.06-28.164,16.74-36.308,28.609
			c-5.288,7.699-11.334,12.497-19.617,15.553c-6.785,2.505-13.497,5.508-19.983,8.413c-5.275,2.362-10.73,4.806-16.182,6.956
			c-7.899,3.117-16.532,5.933-26.394,8.601l-0.253,0.069c-9.653,2.615-19.633,5.32-27.793,12.146
			c-0.967,0.812-1.995,1.338-2.709,1.338c0,0-0.004,0-0.008,0c-6.132-0.6-10.645,1.665-13.48,6.76
			c-0.249,0.453-0.408,0.404-0.6,0.188c-3.917-4.341-4.933-9.584-6.01-15.133l-0.298-1.518c-0.277-1.424-1.032-1.636-1.457-1.636
			c-0.494,0-1.146,0.265-1.477,1.538c-2.203,8.507-0.122,15.471,8.25,27.605c0.388,0.562,0.424,1.607,0.073,2.19l-1.722,2.913
			c-2.167,3.681-4.406,7.487-6.944,10.987c-1.444,1.991-3.778,3.913-7.136,5.88c-4.557,2.668-9.167,5.242-13.782,7.812
			c-5.696,3.174-11.583,6.459-17.267,9.881c-6.638,3.996-13.297,8.197-19.735,12.258c-6.206,3.912-12.62,7.959-19,11.814
			c-1.706,1.029-3.635,1.707-5.675,2.424c-0.902,0.318-1.803,0.633-2.697,0.984c-1.273,0.502-1.428,1.195-1.334,1.693
			c0.078,0.398,0.408,1.068,1.885,1.068c0,0,0,0,0.004,0c6.434-0.135,12.726-1.963,18.703-5.439
			c8.943-5.201,17.964-10.619,26.688-15.85c6.148-3.693,12.301-7.385,18.474-11.033c11.037-6.531,19.315-6.025,28.727,2.184
			c0.164,0.139,0.245,0.309,0.245,0.492c0,0.193-0.102,0.385-0.282,0.531l-35.247,29.303c-1.077,0.893-0.918,1.754-0.8,2.08
			c0.114,0.322,0.522,1.066,1.922,1.066l0,0c3.676-0.082,6.749-1.498,10.277-4.734c2.118-1.945,4.182-3.945,6.247-5.947
			c3.056-2.967,6.214-6.031,9.49-8.83c2.55-2.178,5.7-3.84,8.748-5.443l0.996-0.525c2.709-1.432,4.99-1.127,7.062,0.992
			c0.392,0.398,0.432,1.379,0.085,1.934c-1.089,1.729-2.224,3.443-3.362,5.16c-4.651,7.018-9.458,14.277-11.216,23.076
			c-0.114,0.572-0.18,1.217,0.2,1.682c0.192,0.236,0.555,0.408,0.857,0.408c0.706,0,1.126-0.6,1.448-1.191l1.962-3.627
			c2.432-4.496,4.945-9.139,7.52-13.645c1.138-1.986,2.62-3.984,4.525-6.111c2.272-2.533,3.244-3.561,4.382-3.561
			c0.885,0,2.122,0.537,4.092,1.533c0.469,0.236,0.657,0.812,0.42,1.285l-12.484,24.818c-1.249,2.48-0.588,3.031-0.31,3.264
			c0.184,0.156,0.489,0.262,0.73,0.262c0.249,0,0.902,0,2.293-1.678c0.918-1.105,1.869-2.248,2.644-3.508l1.946-3.121
			c2.794-4.459,5.683-9.074,8.144-13.832c1.665-3.223,3.329-3.635,4.594-3.635c0.669,0,1.404,0.135,2.24,0.408
			c0.245,0.082,0.371,0.262,0.433,0.404c0.102,0.232,0.102,0.51-0.004,0.75l-0.351,0.771c-0.42,0.898-1.257,2.357-1.869,3.256
			c-7.287,10.633-16.639,22.098-30.719,26.479c-1.46,0.453-2.289,1.791-2.052,3.33c0.277,1.828,1.954,2.949,3.705,2.41
			c16.405-5.104,27.042-18.387,36.091-31.982c0.588-0.885,1.612-2.094,2.342-2.594c2.848-1.947,5.724-2.109,11.509-0.641
			c0.82,0.207,2.036,1.643,2.554,3.014c5.985,15.766,13.436,30.564,22.154,43.982c10.331,15.912,22.399,26.953,36.892,33.746
			c0.469,0.217,0.946,0.408,1.457,0.551c0.208,0.057,0.396,0.086,0.571,0.086c0.44,0,1.032-0.379,1.171-0.795
			c0.322-0.98-0.727-1.76-1.073-2.012c-22.811-16.953-39.339-38.752-49.119-64.799c-1.787-4.766-3.007-9.689-4.06-14.305
			c-0.033-0.143-0.049-0.262-0.053-0.359l0.575,0.119c0.367,0.076,0.734,0.139,1.105,0.18c0.461,0.053,0.951,0.117,1.11,0.162
			c0.212,0.078,0.424,0.127,0.628,0.143c15.019,1.09,28.311,1.832,40.649,2.266l0.359,0.004c2.036,0,4.043-0.596,5.985-1.18
			c0.983-0.293,1.967-0.588,2.95-0.795c4.479-0.963,8.959-1.902,13.443-2.84l2.746-0.576c1.575-0.33,3.182-0.498,4.782-0.498
			c5.928,0,11.465,2.248,17.568,4.967c5.141,2.289,10.649,3.896,15.977,5.455c3.146,0.918,6.397,1.867,9.527,2.945
			c1.481,0.51,3.117,1.982,3.436,3.092c1.249,4.371,2.228,8.924,3.174,13.322l0.677,3.125c0.13,0.6,0.653,2.582,1.889,2.844
			c0.065,0.012,0.184,0.023,0.253,0.023c1.338,0,1.93-1.953,2.077-2.549l0.714-2.816c0.934-3.643,1.897-7.408,2.48-11.199
			c0.51-3.305,1.11-4.9,4.423-5.242c2.052-0.213,4.047-0.926,6.161-1.686l1.326-0.469c0.865-0.303,1.42-0.885,1.526-1.604
			c0.105-0.715-0.253-1.428-0.992-1.959c-3.916-2.836-7.972-5.773-13.345-5.773c-0.551,0-1.118,0.033-1.828,0.104
			c-0.816,0-2.077-0.629-2.55-1.27c-3.566-4.875-6.985-9.797-10.604-15.006l-2.399-3.451c-0.126-0.18-0.171-0.363-0.126-0.531
			s0.18-0.307,0.379-0.4l2.566-1.195c4.063-1.896,8.266-3.855,12.464-5.586c0.281-0.117,1.958,0.156,3.105,0.861
			c14.864,9.172,32.301,16.1,54.875,21.795c4.203,1.062,8.527,1.6,12.853,1.6c6.671,0,13.015-1.264,18.857-3.758
			c5.316-2.271,10.812-4.393,16.133-6.445c5.883-2.273,11.967-4.623,17.85-7.189c6.663-2.896,11.901-7.227,16.014-13.219
			c0.282-0.416,0.809-0.506,1.229-0.217l0.453,0.314c1.489,1.027,3.023,2.09,3.908,3.447c4.896,7.508,9.771,15.215,14.484,22.668
			c4.667,7.377,9.49,15.004,14.337,22.445c6.23,9.559,12.966,19.363,20.596,29.971c6.598,9.172,15.867,15.32,25.676,21.836
			l0.693,0.461c0.543,0.359,0.926,0.512,1.285,0.512c0.392,0,0.841-0.27,1.012-0.621c0.355-0.734-0.204-1.449-0.506-1.832
			c-2.154-2.75-4.275-5.434-6.364-8.074c-5.884-7.441-11.44-14.467-16.72-21.742c-3.102-4.271-5.925-9.375-8.883-16.062
			c-5.459-12.363-0.518-17.426,11.184-22.938c1.113-0.523,2.244-1.033,3.374-1.539c3.884-1.746,7.898-3.549,11.347-6.092
			c2.774-2.047,5.234-4.541,7.613-6.955c2.027-2.057,4.125-4.188,6.381-5.99c3.297-2.637,6.997-4.92,10.579-7.133
			c1.502-0.926,3.003-1.855,4.48-2.807c0.053-0.027,0.229-0.064,0.343-0.09c0.313-0.064,0.706-0.146,1.068-0.398
			c2.195-1.506,4.406-2.992,6.618-4.481c5.888-3.961,11.975-8.058,17.695-12.456c3.182-2.448,5.907-3.859,9.82-3.713
			c2.272,0.114,4.721,0.167,7.703,0.167c1.885,0,3.773-0.02,5.658-0.04l3.672-0.033c1.257-0.008,2.84-0.416,3.171-1.521
			C584.54,272.567,583.234,271.535,582.002,271.021z M268.168,331.353c-0.004,0.008-0.069,0.072-0.253,0.098
			c-0.951,0.15-1.877,0.229-2.754,0.229c-7.071,0-10.755-4.668-15.186-11.262c-0.293-0.436-0.18-1.035,0.257-1.334l5.736-3.938
			c0.159-0.105,0.343-0.166,0.535-0.166c0.314,0,0.607,0.154,0.783,0.412l10.759,15.639
			C268.181,331.218,268.177,331.335,268.168,331.353z"/>
	</g>
</g>
<g>
</g>
<g>
</g>
<g>
</g>
<g>
</g>
<g>
</g>
<g>
</g>
<g>
</g>
<g>
</g>
<g>
</g>
<g>
</g>
<g>
</g>
<g>
</g>
<g>
</g>
<g>
</g>
<g>
</g>
</svg>
