<?xml version="1.0" encoding="iso-8859-1"?>
<!-- Generator: Adobe Illustrator 16.0.0, SVG Export Plug-In . SVG Version: 6.00 Build 0)  -->
<!DOCTYPE svg PUBLIC "-//W3C//DTD SVG 1.1//EN" "http://www.w3.org/Graphics/SVG/1.1/DTD/svg11.dtd">
<svg version="1.1" id="Capa_1" xmlns="http://www.w3.org/2000/svg" xmlns:xlink="http://www.w3.org/1999/xlink" x="0px" y="0px"
	 width="578.926px" height="578.926px" viewBox="0 0 578.926 578.926" style="enable-background:new 0 0 578.926 578.926;"
	 xml:space="preserve">
<g>
	<g>
		<path d="M574.453,245.011l-2.244-8.16c-0.086-0.31-0.225-0.62-0.449-0.788c0.711-8.556-4.807-13.346-10.033-17.168
			c-1.227-0.897-2.516-1.771-3.814-2.648c-3.875-2.62-7.883-5.324-10.053-8.801c-2.562-4.108-6.062-6.185-9.453-8.192
			c-1.852-1.098-3.607-2.134-5.133-3.468c-4.814-4.194-10-8.519-15.887-11.224c-10.041-4.619-20.605-8.434-30.824-12.122
			l-1.869-0.677c-9.1-3.289-18.242-6.458-27.385-9.625c-7.084-2.456-14.174-4.913-21.24-7.422
			c-21.906-7.784-43.457-15.026-66.281-18.07l-1.275-0.171c-10.107-1.355-20.557-2.75-30.91-2.75c-3.945,0-7.602,0.196-11.184,0.596
			c-9.287,1.04-18.639,2.656-27.684,4.214c-4.436,0.767-8.865,1.53-13.305,2.232c-7.931,1.257-15.23,4.333-22.289,7.307
			c-3.341,1.412-6.805,2.868-10.249,4.092c-12.591,4.472-25.565,6.646-39.666,6.646l-1.036-0.004
			c-21.894-0.175-43.979,0.49-65.672,1.946c-10.469,0.702-20.119,3.917-27.899,9.294c-0.93,0.636-1.787,1.379-2.701,2.179
			l-1.252,1.077c-0.563,0.469-0.828,1.199-0.702,1.921s0.632,1.318,1.322,1.563c7.613,2.725,12.003,8.478,15.614,14.288
			c0.437,0.702,1.595,2.57-1.542,5.704c-2.721,2.717-5.092,5.753-7.601,8.968c-1.102,1.408-2.236,2.864-3.456,4.357
			c-0.469,0.58-0.591,1.363-0.31,2.052c0.282,0.689,0.914,1.175,1.652,1.261l15.435,1.824c-0.387,0.478-0.775,0.963-1.171,1.453
			c-2.729,3.391-5.667,7.038-8.47,10.792c-12.656,16.924-21.339,35.798-26.561,57.704c-2.726,11.437-7.409,22.351-11.636,31.514
			c-2.125,4.614-6.091,9.181-10.355,11.922c-3.003,1.93-7.103,2.697-11.069,3.432c-1.359,0.253-2.705,0.506-4.019,0.8
			c-14.357,3.211-32.554,8.747-45.953,23.166c-5.002,5.381-8.792,12.244-11.591,20.979c-2.978,9.322-3.313,18.812-3.639,27.988
			c-0.073,1.983-0.139,3.966-0.237,5.949c-0.028,0.571-0.09,1.138-0.155,1.729c-0.176,1.628-0.375,3.477-0.041,5.875
			c0.102,0.755,0.62,1.384,1.338,1.641c0.726,0.261,1.518,0.086,2.073-0.429c0.334-0.314,0.734-0.604,1.126-0.897
			c1.167-0.873,2.489-1.864,2.991-3.436c1.24-3.872,3.423-6.544,6.858-8.372c0.518-0.021,1.041-0.069,1.559-0.146l7.842-1.191
			c0.42,0.261,0.914,0.367,1.412,0.289l21.179-3.35c1.901,0.616,4.162,1.195,6.581,0.987c1.46-0.13,2.791-0.339,4.027-0.637
			c0.869,0.258,1.75,0.359,2.599,0.417c1.583,0.566,3.219,0.963,4.879,1.179c0.229,0.249,0.429,0.543,0.616,0.901
			c0.265,0.515,0.743,0.89,1.302,1.032c0.567,0.151,1.159,0.041,1.64-0.281l2.338-1.57c2.538-0.233,5.222-0.804,7.907-1.678
			c0.445-0.118,0.877-0.269,1.212-0.407c7.271-2.542,14.423-6.892,20.73-10.734l1.444-0.873c1.522,0.877,3.696,1.097,5.492,1.097
			c0.967,0,5.239-0.102,7.923-1.832c7.483,8.675,15.214,17.63,23.162,26.125c6.618,7.066,17.177,15.495,29.915,15.495
			c4.37,0,8.687-1.023,12.828-3.047c1.293-0.633,2.399-1.583,3.248-2.791c2.709,1.179,5.431,2.338,8.168,3.431
			c4.59,1.832,9.388,2.208,12.995,1.461c0.755,0,1.722-0.081,2.566-0.706l0.163-0.105c0.045,0.012,0.085,0.024,0.126,0.036
			c0.89,0.245,1.852,0.343,2.823,0.322c0.245,0.359,0.473,0.8,0.686,1.311c1.008,2.411,1.726,5.055,2.485,7.854
			c0.359,1.318,0.73,2.685,1.146,4.101c0.253,0.853,1.024,1.444,1.914,1.461c0.016,0,0.032,0,0.044,0
			c0.874,0,1.648-0.556,1.934-1.38c2.946-8.629,3.566-17.421,1.934-26.487c0.135-7.76-2.138-15.1-6.585-21.236
			c-0.461-1.097-0.935-2.194-1.416-3.288c-0.351-0.804-1.489-1.244-2.383-1.135c-1.534-1.518-3.174-2.844-4.892-3.965l-2.109-2.596
			c-4.166-5.161-8.474-10.493-14.211-14.688c-4.553-3.325-8.923-7.911-13.354-14.019c-1.624-2.249-2.656-4.994-3.75-7.903
			c-0.702-1.869-1.428-3.803-2.334-5.639c-1.2-2.436-3.195-4.431-4.798-6.034c-0.727-0.727-1.645-0.995-2.526-1.163l0.086-0.706
			c1.893-2.778,3.586-5.549,5.055-8.323l7.462-9.146c1.069-1.069,2.089-2.049,3.068-2.958c0.42,0.665,1.171,1.061,2.007,0.934
			c0.555-0.077,1.143-0.139,1.746-0.204c1.498-0.158,3.195-0.342,4.852-0.767c0.326-0.082,0.595-0.086,0.787-0.094
			c0.225,0.204,0.449,1.228,0.575,1.783c0.253,1.117,0.266,2.166,0.045,2.88c-2.183,7.059,0.335,12.946,2.767,18.634
			c0.473,1.109,0.946,2.22,1.387,3.337c0.269,0.694,0.51,1.404,0.738,2.139c-0.261,0.232-0.526,0.465-0.795,0.693
			c-1.526,1.293-2.044,3.138-1.387,4.929c1.13,3.068,5.402,4.39,8.017,2.175c16.516-14.003,24.945-36.084,22.17-57.875
			c1.461-0.955,2.938-1.836,4.199-2.6l2.219-0.669c0.461,0.217,1.167,0.339,1.771,0.184c3.949-1.061,7.882-2.183,11.815-3.305
			l5.793-1.645c-0.016,0.384-0.037,0.768-0.057,1.146c-0.13,2.689-0.269,5.472,0.331,8.148c0.747,3.333,2.293,6.413,3.787,9.388
			l1.057,2.122c0.665,1.383,2.395,1.591,3.366,1.591c0.763,0,1.412-0.135,1.93-0.396c5.259-2.636,10.449-5.402,15.63-8.168
			c0.657-0.352,1.293-0.768,1.934-1.188c0.963-0.633,1.873-1.232,2.62-1.424c0.326,0,1.008,0.277,1.322,0.502
			c1.285,3.985,4.725,4.255,6.593,4.406c10.454,0.849,17.768-5.937,18.075-16.283c0.053-1.738-0.041-3.615-0.295-5.953
			c-0.143-1.269-0.285-2.57-0.252-3.207c0.428-0.057,1.682-0.061,3.383-0.004c17.865,0.616,35.621-2.627,57.037-10.232l0.111-0.041
			l-10.336,33.852c-0.223,0.734-0.016,1.53,0.535,2.061c0.551,0.534,1.363,0.714,2.072,0.47l0.506-0.172
			c12.27-4.157,23.865-8.087,34.086-15.026c2.789-0.873,5.25-2.432,7.135-4.521l7.785-8.625c0.584,0.171,1.158,0.338,1.742,0.506
			c3.5,1.012,6.809,1.962,9.824,3.496c3.195,1.628,6.059,3.925,9.094,6.353c0.977,0.783,1.955,1.566,2.941,2.321
			c2.906,2.232,5.656,2.709,9.266,1.588c1.699-0.522,3.623-0.556,5.852-0.592c1.082-0.017,2.191-0.037,3.334-0.11
			c1.031-0.069,1.848-0.897,1.9-1.93c0.658-12.473-5.789-22.42-12.562-30.825l58.459,4.639l-8.059,14.651
			c-0.371,0.682-0.326,1.514,0.115,2.15c0.443,0.636,1.219,0.954,1.975,0.849c3.1-0.466,8.836-4.26,11.139-9.38
			c3.113-6.92,6.973-8.964,13.26-7.324c1.076,0.282,2.375,0.335,3.777,0.261l-4.268,5.585c-0.701,0.396-1.436,0.743-2.195,1.036
			c-2.293,0.886-3.578,3.231-3.117,5.708c0.539,2.905,3.357,4.59,6.084,3.546c7.467-2.877,13.088-8.438,15.928-15.737l1.094-0.326
			c2.631-0.779,5.354-1.587,7.984-2.603c2.076-0.804,3.818-2.138,5.762-3.631c1.57-1.204,3.076-2.489,4.838-3.994l0.102-0.086
			l0.561,2.256c0.881,3.545,1.684,6.789,2.451,9.71l0.645,4.716c0.311,2.281,2.027,3.815,4.275,3.815
			c1.506,0,3.012-0.69,4.023-1.853c0.967-1.11,1.391-2.538,1.168-4.166l-0.996-7.062c0.117-3.256,0.207-6.516,0.281-9.771
			c0.016-0.726-0.037-1.436-0.115-2.13c0.111,0.212,0.234,0.478,0.367,0.816c1.926,4.855,4.432,9.984,7.664,15.671
			c0.346,0.616,0.873,0.857,1.713,0.836c0.607,0.253,1.281,0.388,1.967,0.388c1.652,0,3.227-0.779,4.111-2.032
			c0.838-1.184,1.008-2.644,0.482-4.121L574.453,245.011z"/>
	</g>
</g>
<g>
</g>
<g>
</g>
<g>
</g>
<g>
</g>
<g>
</g>
<g>
</g>
<g>
</g>
<g>
</g>
<g>
</g>
<g>
</g>
<g>
</g>
<g>
</g>
<g>
</g>
<g>
</g>
<g>
</g>
</svg>
