<?xml version="1.0" encoding="iso-8859-1"?>
<!-- Generator: Adobe Illustrator 16.0.0, SVG Export Plug-In . SVG Version: 6.00 Build 0)  -->
<!DOCTYPE svg PUBLIC "-//W3C//DTD SVG 1.1//EN" "http://www.w3.org/Graphics/SVG/1.1/DTD/svg11.dtd">
<svg version="1.1" id="Capa_1" xmlns="http://www.w3.org/2000/svg" xmlns:xlink="http://www.w3.org/1999/xlink" x="0px" y="0px"
	 width="565.545px" height="565.545px" viewBox="0 0 565.545 565.545" style="enable-background:new 0 0 565.545 565.545;"
	 xml:space="preserve">
<g>
	<g>
		<path d="M4.218,324.498c1.142,7.458,4.92,14.651,8.319,21.588c4.207,8.584,8.642,17.164,13.986,25.062
			c5.68,8.389,12.542,15.978,18.886,23.913c0.621-0.298,1.241-0.592,1.865-0.885c0.653-2.073,1.31-4.149,1.962-6.223l0.897,1.232
			c2.881-2.383,6.296-4.354,8.536-7.233c5.5-7.071,10.27-14.709,15.684-21.849c6.316-8.332,12.999-16.386,19.522-24.558
			c0.881,0.326,1.759,0.648,2.64,0.975c-0.388,2.298-0.318,4.811-1.269,6.847c-1.44,3.068-3.607,5.789-5.438,8.678
			c-4.504,7.096-9.233,14.064-13.427,21.339c-3.46,6.006-6.3,12.366-9.36,18.597c-1.31,2.668-3.207,5.312-3.578,8.136
			c-1.42,10.824,5.573,21.188,15.969,25.451c7.43,3.047,14.472,7.033,21.877,10.146c4.227,1.779,8.768,2.999,13.28,3.855
			c4.586,0.869,9.201,1.583,13.819,2.297c6.1,4.219,13.432,6.688,21.139,6.74c4.818,0.037,9.645-0.024,14.48-0.135
			c3.337,0.682,6.675,1.359,10.021,2.016c1.607,0.318,3.268,0.515,4.904,0.519c21.073,0.045,42.167,0.624,63.199-0.245
			c7.821-0.322,15.504-4.067,23.248-6.25c0.792-0.225,1.579-0.535,2.383-0.612c14.101-1.351,28.201-2.718,42.311-3.958
			c2.868-0.253,5.862,0.417,8.657-0.094c4.435-0.815,8.687-2.701,13.134-3.333c4.88-0.693,10.738,1.077,14.635-1.045
			c5.541-3.015,11.064-2.04,16.491-3.227c7.01-1.534,13.754-4.264,20.612-6.479c0.392-0.126,0.767-0.306,1.167-0.388
			c6.581-1.391,13.211-2.582,19.727-4.227c3.423-0.865,6.703-2.383,9.943-3.844c0.995-0.448,1.982-0.914,2.974-1.37
			c0.348-0.119,0.698-0.229,1.045-0.352c13.566-4.712,26.658-9.82,37.903-17.715c1.986-0.963,3.966-1.942,5.924-2.958
			c3.786-1.971,6.785-5.402,10.416-7.74c3.84-2.468,8.042-4.369,12.024-6.626c3.374-1.913,6.605-4.076,9.996-5.957
			c2.962-1.644,5.907-3.643,9.118-4.446c9.816-2.448,16.472-10.05,24.97-14.554c1.285-0.682,2.632-1.249,3.998-1.779
			c4.113-0.154,8.226-0.306,12.338-0.457c11.11-0.412,20.4-8.968,20.4-20.399c0-10.808-9.282-20.812-20.4-20.4
			c-1.383,0.054-2.766,0.103-4.148,0.155c-3.105-2.464-7.161-4.035-12.18-4.125c-4.708-0.086-9.245-0.604-13.672-1.461
			c-0.722-3.108-1.146-6.332-1.326-9.637c-0.371-6.846-4.684-11.909-9.008-15.377c-5.777-4.639-6.573-11.184-9.719-16.72
			c-4.228-7.45-7.564-15.431-10.972-23.317c-2.814-6.52-4.834-13.395-7.825-19.825c-3.651-7.854-7.78-15.5-12.012-23.063
			c-4.716-8.426-8.854-17.431-14.961-24.75c-5.94-7.119-11.069-15.039-18.854-20.808c-7.679-5.691-15.414-10.686-23.881-15.284
			c-9.897-5.373-20.587-8.376-30.526-13.341c-6.373-3.187-14.647-2.338-21.506-4.848c-10.24-3.749-21.595-1.061-30.946-4.663
			c-7.977-3.072-13.632,0.828-20.318,0.828c-20.454,0.004-40.943-0.285-61.344,0.881c-10.114,0.58-20.004,4.407-30.098,6.169
			c-5.23,0.914-10.75,0.095-16.03,0.829c-10.167,1.415-20.465,2.472-30.037,6.69c-0.547,0.241-1.22,0.188-1.832,0.273
			c-10.143,1.412-20.323,2.591-30.408,4.329c-5.002,0.861-9.812,2.795-14.733,4.153c-3.839,1.061-7.699,2.677-11.591,2.812
			c-7.14,0.244-13.093,2.848-18.948,6.609c-3.227,2.072-7.095,3.19-10.747,4.541c-6.879,2.542-13.803,4.957-20.722,7.385
			c-5.035,1.767-10.09,3.468-15.133,5.198c0.057,0.592,0.114,1.187,0.171,1.778c5.614,0.457,11.232,0.914,18.287,1.485
			c-1.869,1.481-2.371,2.199-2.987,2.317c-8.372,1.579-12.252,6.394-12.652,14.61c-0.4,8.263,2.464,15.116,7.368,21.481
			c8.707,11.302,17.214,22.754,25.937,34.039c3.676,4.754,6.822,10.824,11.73,13.525c9.747,5.365,9.531,17.422,18.58,22.868
			c-1.95,1.865-3.121,3.334-4.602,4.342c-4.9,3.333-10.004,1.138-10.498-4.733c-0.526-6.271-5.549-8.755-9.527-11.941
			c-9.2-7.365-18.727-14.321-28.066-21.51c-6.471-4.982-12.477-10.698-19.392-14.949c-6.1-3.75-13.072-6.174-19.849-8.675
			c-3.158-1.166-4.708,1.017-5.202,4.272c-1.114,7.336-2.122,14.725-3.921,21.901C5.34,253.795,2.26,260.25,0.611,267.06
			c-0.946,3.908-0.604,8.241-0.236,12.329c0.763,8.462-2.069,17.336,2.762,25.361c0.286,0.474,0.424,1.489,0.143,1.787
			C-2.587,312.727,3.345,318.79,4.218,324.498z"/>
	</g>
</g>
<g>
</g>
<g>
</g>
<g>
</g>
<g>
</g>
<g>
</g>
<g>
</g>
<g>
</g>
<g>
</g>
<g>
</g>
<g>
</g>
<g>
</g>
<g>
</g>
<g>
</g>
<g>
</g>
<g>
</g>
</svg>
