<?xml version="1.0" encoding="iso-8859-1"?>
<!-- Generator: Adobe Illustrator 16.0.0, SVG Export Plug-In . SVG Version: 6.00 Build 0)  -->
<!DOCTYPE svg PUBLIC "-//W3C//DTD SVG 1.1//EN" "http://www.w3.org/Graphics/SVG/1.1/DTD/svg11.dtd">
<svg version="1.1" id="Capa_1" xmlns="http://www.w3.org/2000/svg" xmlns:xlink="http://www.w3.org/1999/xlink" x="0px" y="0px"
	 width="580.311px" height="580.311px" viewBox="0 0 580.311 580.311" style="enable-background:new 0 0 580.311 580.311;"
	 xml:space="preserve">
<g>
	<g>
		<path d="M549.715,371.976c-4.17-9.106-6.471-19.045-10.053-28.445c-14.615-38.312-29.52-76.468-58.533-106.966
			c-1.791-1.881-2.426-6.014-1.859-8.739c1.109-5.341,3.447-10.428,5.287-15.639c-12.758-1.848-32.229,2.836-46.223,12.375
			c-24.104,16.435-38.176,39.286-41.469,68.801c-0.584-1.191-2.9-1.179-2.979-0.229c-0.533,6.581-4.928,7.548-9.988,6.341
			c-5.744-1.375-11.301-3.533-17.719-5.602c2.045-2.804,3.447-4.651,4.77-6.553c9.449-13.578-93.689-65.978-103.313-71.099
			c-16.214-8.633-32.546-17.059-49.005-25.218c-4.084-2.024-11.494-7.263-16.435-8.254c-0.469-0.094-0.914-0.151-1.334-0.159
			c-13.709-0.371-25.602,17.735-31.143,28.34c-6.263,11.982-10.42,25.071-12.216,38.47c-0.849,6.341,0.645,10.792-5.712,13.362
			c-4.733,1.913-10.836,0.032-15.81,1.068c-21.11,4.398-41.893,9.658-61.894,18.304c-19.625,8.486-37.903,18.303-52.432,32.48
			c-4.574,0.485-9.021,2.052-12.941,4.749c-6.198,4.255-8.201,11.656-4.423,17.842c-1.522,2.701-2.979,5.479-4.292,8.425v2.579
			c2.109,2.591,3.872,5.598,6.385,7.699c3.538,2.962,7.353,5.275,11.367,7.07c1.995,8.385,7.242,16.259,15.904,18.976
			c17.564,5.504,46.426-15.609,51.028,12.812c0.841,5.186,8.703,2.979,7.871-2.171c-1.783-11.008-8.588-18.14-18.972-21.742
			c-14.533-5.043-40,13.827-46.899-4.802c3.782,0.971,7.674,1.615,11.665,1.962c1.673,0.144,4.872-1.917,5.1-3.329
			c0.824-5.022,3.913-5.148,7.882-5.397c8.311-0.519,16.573-1.95,24.88-2.265c6.475-0.245,13.276-0.424,19.429,1.232
			c11.057,2.979,19.91,10.196,29.258,16.769c23.574,16.577,50.278,19.172,77.964,13.688c8.311-1.645,8.907-3.811,3.791-10.787
			c-5.777-7.879-11.93-15.479-19.082-24.696c3.79,0.828,6.532,0.795,8.551,1.995c5.063,3.003,9.388,7.604,14.737,9.714
			c20.159,7.956,41.249,11.444,62.905,9.711c10.204-0.82,20.258-3.105,28.703-12.094c-4.484-3.684-8.193-7.604-12.677-10.171
			c-4.59-2.624-9.935-3.917-15.015-5.818c10.727-7.715,21.086-9.584,31.176,0.27c0.15,0.146,0.33,0.277,0.518,0.384
			c10.262,5.842,20.898,9.114,32.488,4.141c6.439-2.762,8.605-6.915,7.291-14.573c9.516,0,18.895-0.567,28.182,0.118
			c18.4,1.362,36.354,4.88,50.486,18.029c11.113,10.339,23.467,17.03,38.641,20.086c27.051,5.451,53.713,12.778,80.662,18.76
			c11.84,2.628,23.957,5.341,36.092,0.856v-2.578c-6.631-2.848-13.656-5.035-19.748-8.76
			C556.197,380.625,551.787,376.505,549.715,371.976z"/>
	</g>
</g>
<g>
</g>
<g>
</g>
<g>
</g>
<g>
</g>
<g>
</g>
<g>
</g>
<g>
</g>
<g>
</g>
<g>
</g>
<g>
</g>
<g>
</g>
<g>
</g>
<g>
</g>
<g>
</g>
<g>
</g>
</svg>
