<?xml version="1.0" encoding="iso-8859-1"?>
<!-- Generator: Adobe Illustrator 16.0.0, SVG Export Plug-In . SVG Version: 6.00 Build 0)  -->
<!DOCTYPE svg PUBLIC "-//W3C//DTD SVG 1.1//EN" "http://www.w3.org/Graphics/SVG/1.1/DTD/svg11.dtd">
<svg version="1.1" id="Capa_1" xmlns="http://www.w3.org/2000/svg" xmlns:xlink="http://www.w3.org/1999/xlink" x="0px" y="0px"
	 width="551.221px" height="551.221px" viewBox="0 0 551.221 551.221" style="enable-background:new 0 0 551.221 551.221;"
	 xml:space="preserve">
<g>
	<g>
		<path d="M8.755,259.244c2.064,2.644,3.411,6.173,6.002,8.009c4.524,3.207,9.69,5.561,14.732,7.964
			c1.587,0.755,3.64,0.637,5.488,0.705c3.036,0.115,6.087-0.121,9.111,0.099c6.291,0.465,11.469-2.473,16.817-5.063
			c9.123-4.415,18.148-9.103,27.552-12.832c3.362-1.334,7.695-0.212,12.962-0.212c-1.354,1.395-1.991,2.631-2.897,2.876
			c-3.468,0.942-7.07,1.391-10.514,2.399c-1.391,0.404-2.631,1.636-3.721,2.713c-4.186,4.137-8.364,8.291-12.383,12.586
			c-2.379,2.539-1.089,9.687,1.428,11.971c2.677,2.424,5.777,5.016,7.079,8.189c2.876,7.021,9.021,10.293,14.443,14.459
			c4.019,3.084,8.066,6.182,12.383,8.809c4.043,2.461,8.442,4.35,12.718,6.426c5.524,2.686,11.167,5.141,16.593,8.006
			c4.068,2.146,8.09,4.496,11.742,7.273c5.736,4.367,12.726,4.66,19.208,5.623c4.248,0.629,9.094-1.664,13.46-3.236
			c6.479-2.332,12.803-5.115,19.127-7.861c1.146-0.498,2.252-1.098,3.33-1.807c11.191,4.197,22.554,7.891,34.047,11.064
			c-1.607,8.775-3.251,17.547-4.541,26.373c-0.212,1.443,1.746,3.207,2.701,4.818c0.759,0,1.521,0,2.281,0
			c5.916-3.604,11.873-7.148,17.744-10.824c6.328-3.961,12.587-8.037,18.895-12.031c8.156,1.414,16.361,2.557,24.598,3.436
			c6.65,1.934,12.986,4.58,20.348,3.744c5.639-0.641,11.547,1.592,17.359,1.873c8.066,0.383,16.211,0.682,24.232,0
			c6.684-0.566,13.26-2.525,19.85-4.031c2.145-0.49,4.133-1.656,6.27-2.207c1.674-0.428,3.529-0.158,5.199-0.596
			c1.836-0.477,3.549-1.416,5.32-2.143c3.838-1.574,8.057-2.574,11.439-4.83c1.232-0.824,2.488-1.461,3.77-1.959
			c42.078-0.42,84.232-13.447,118.064-38.143c4.271-3.117,7.658-6.365,9.611-11.102c1.682-1.371,3.236-2.93,4.635-4.693
			c1.311-1.648,1.363-3.822,0.119-5.219c0.578-0.672,1.17-1.342,1.783-1.982c2.508-2.619,4.871-7.054,3.826-8.988
			c-2.289-4.255-2.713-4.149-8.779-1.398c2.342-6.553,1.803-7.455-5.012-9.454c-2.113-0.62-4.088-1.717-6.098-2.656
			c-8.178-3.819-16.275-7.817-24.547-11.433c-5.234-2.289-10.607-4.451-16.123-5.867c-5.432-1.392-11.221-1.371-16.676-2.689
			c-7.869-1.901-15.568-4.5-23.373-6.683c-0.596-0.167-1.266-0.085-2.082,0.041c-1.109-0.347-2.223-0.686-3.334-1.028
			c-3.1-2.122-7.824-2.387-11.881-4.002c-0.42-0.167-0.93-0.118-1.488,0.053c-40.018-11.338-81.111-18.682-122.922-21.853
			c-1.678-0.126-3.312-0.008-4.896,0.306c-4.338-0.767-8.633-1.526-12.926-2.285c-4.41-0.779-8.797-1.729-13.235-2.293
			c-5.247-0.669-10.559-0.844-15.802-1.534c-5.797-0.763-11.53-2.057-17.336-2.767c-4.847-0.596-9.78-0.444-14.626-1.044
			c-11.012-1.371-21.987-3.06-32.995-4.463c-0.833-0.106-1.689-0.012-2.55,0.139c-0.416-0.082-0.836-0.159-1.252-0.241
			c-2.852-0.547-5.712-0.648-8.47-0.338c-1.501-0.237-3.003-0.486-4.497-0.767c-4.259-0.804-8.458-1.918-12.725-2.665
			c-6.381-1.118-12.86-1.722-19.18-3.097c-10.747-2.333-21.326-5.492-32.118-7.532c-7.095-1.338-13.285-4.214-19.372-7.768
			c-2.167-1.265-4.647-1.987-6.985-2.958c-2.534,0-5.067,0-7.601,0c-0.245,0.245-0.461,0.669-0.734,0.71
			c-6.834,1.073-12.33,4.316-15.275,10.661c-0.906,1.95-0.698,4.928,0.094,7.025c1.236,3.276,3.199,6.349,5.227,9.246
			c2.599,3.705,5.585,7.14,8.38,10.714c0.91,1.163,1.742,2.391,2.607,3.59c-23.297-10.653-47.328-15.259-71.159-17.238
			c-3.04,5.781-6.336,9.519-11.224,11.775c0,9.119,0,18.242,0,27.36c0.734,2.423,1.795,4.802,2.138,7.283
			C2.945,249.562,5.161,254.649,8.755,259.244z M195.624,333.32c0.184,0.072,0.367,0.146,0.551,0.221c-0.249,0-0.49,0-0.743,0
			C195.501,333.463,195.554,333.393,195.624,333.32z"/>
	</g>
</g>
<g>
</g>
<g>
</g>
<g>
</g>
<g>
</g>
<g>
</g>
<g>
</g>
<g>
</g>
<g>
</g>
<g>
</g>
<g>
</g>
<g>
</g>
<g>
</g>
<g>
</g>
<g>
</g>
<g>
</g>
</svg>
