<?xml version="1.0" encoding="iso-8859-1"?>
<!-- Generator: Adobe Illustrator 16.0.0, SVG Export Plug-In . SVG Version: 6.00 Build 0)  -->
<!DOCTYPE svg PUBLIC "-//W3C//DTD SVG 1.1//EN" "http://www.w3.org/Graphics/SVG/1.1/DTD/svg11.dtd">
<svg version="1.1" id="Capa_1" xmlns="http://www.w3.org/2000/svg" xmlns:xlink="http://www.w3.org/1999/xlink" x="0px" y="0px"
	 width="596.662px" height="596.662px" viewBox="0 0 596.662 596.662" style="enable-background:new 0 0 596.662 596.662;"
	 xml:space="preserve">
<g>
	<g>
		<path d="M582.73,283.306c-17.283-8.666-31.6-22.566-52.02-26.03c-13.133-2.229-25.283-10.058-39.502-7.516
			c-1.343,0.24-2.815-0.245-4.227-0.388c-10.348-1.036-20.674-2.456-31.049-3.048c-54.692-3.121-109.405-5.863-164.09-9.155
			c-10.6-0.637-21.351-0.812-30.49-8.858c-16.226-14.279-35.973-22.362-56.438-28.629c-2.615-0.8-5.541-0.583-9.168-0.914
			c4.011,13.737,15.516,18.233,24.092,25.513c-0.392,0.954-0.779,1.913-1.171,2.868c-6.826-3.175-14.243-5.479-20.367-9.678
			c-20.029-13.733-39.127-28.87-59.543-41.976c-8.666-5.561-19.584-7.866-29.735-10.751c-5.377-1.529-9.184,2.253-7.519,6.884
			c3.802,10.571,7.915,21.085,12.742,31.22c2.448,5.141,6.724,9.413,11.289,15.582c-9.82-0.841-17.446-0.857-24.802-2.285
			c-9.649-1.873-18.719-4.644-26.487-12.061c-12.448-11.885-25.937-22.763-39.617-33.248c-7.776-5.965-16.655-10.583-25.37-15.178
			c-2.183-1.15-6.373-0.82-8.282,0.625c-1.338,1.012-1.171,5.385-0.277,7.723c4.264,11.204,9.245,22.135,13.468,33.351
			c2.208,5.862,2.044,12.982,5.312,17.988c4.912,7.527,3.231,15.92,5.663,23.611c3.288,10.416,4.765,22.016,19.065,23.896
			c17.279,2.272,34.427,6.201,51.755,7.123c9.066,0.481,13.844,5.219,20.8,10.123c-22.807,0.963-44.456,0.277-65.855,6.1
			c3.994,4.015,7.96,8.282,12.554,9.118c18.976,3.473,38.086,6.365,57.254,8.557c12.905,1.477,26.537-0.661,36.749,10.265
			c0.906,0.972,2.428,1.444,3.737,1.946c8.723,3.333,17.467,6.609,26.634,10.069c-6.206,2.559-11.853,4.888-17.495,7.214
			c0.029,0.885,0.053,1.771,0.082,2.656c8.373,2.893,16.745,5.789,27.075,9.359c-16.65,8.221-31.897,15.753-47.145,23.28
			c0.069,0.522,0.143,1.04,0.212,1.562c-0.856,0.294-0.412,1.632,0.457,1.343c1.028-0.343,2.057-0.686,3.081-1.028
			c5.712-0.139,11.457-0.09,17.059-0.951c19.4-2.986,36.202-11.966,51.485-23.921c7.258-5.675,14.452-7.315,23.595-3.9
			c24.427,9.127,49.54,15.79,75.664,18.062c34.35,2.986,68.679,6.389,103.163,1.808c1.42-0.188,2.934,0.33,6.055,0.729
			c-24.235,23.685-40.482,51.254-56.618,79.23c3.594,0.269,6.568,0.053,8.682-1.408c7.564-5.238,15.513-10.195,22.085-16.536
			c18.034-17.397,34.97-35.725,44.207-59.801c1.232-3.215,5.035-6.772,8.308-7.625c8.849-2.31,18.029-3.501,27.144-4.545
			c2.158-0.249,5.153,1.265,6.777,2.929c4.378,4.484,8.225,9.486,13.484,15.7c-0.104-8.274-0.18-14.562-0.254-20.396
			c16.908-8.793,34.676-10.368,53.08-10.964c9.932-0.317,19.834-5.189,29.451-8.792c2.031-0.763,3.08-4.876,3.852-7.65
			c0.15-0.546-2.943-2.565-4.754-2.986c-8.801-2.052-17.68-3.79-26.527-5.639c2.338-1.688,4.74-2.309,7.172-2.79
			c7.408-1.461,14.883-2.628,22.223-4.362c6.826-1.615,9.123-5.435,5.574-11.351C592.123,290.577,587.66,285.779,582.73,283.306z"/>
	</g>
</g>
<g>
</g>
<g>
</g>
<g>
</g>
<g>
</g>
<g>
</g>
<g>
</g>
<g>
</g>
<g>
</g>
<g>
</g>
<g>
</g>
<g>
</g>
<g>
</g>
<g>
</g>
<g>
</g>
<g>
</g>
</svg>
