<?xml version="1.0" encoding="iso-8859-1"?>
<!-- Generator: Adobe Illustrator 16.0.0, SVG Export Plug-In . SVG Version: 6.00 Build 0)  -->
<!DOCTYPE svg PUBLIC "-//W3C//DTD SVG 1.1//EN" "http://www.w3.org/Graphics/SVG/1.1/DTD/svg11.dtd">
<svg version="1.1" id="Capa_1" xmlns="http://www.w3.org/2000/svg" xmlns:xlink="http://www.w3.org/1999/xlink" x="0px" y="0px"
	 width="577.275px" height="577.275px" viewBox="0 0 577.275 577.275" style="enable-background:new 0 0 577.275 577.275;"
	 xml:space="preserve">
<g>
	<g>
		<path d="M540.596,288.176c9.743-10.869,17.435-19.364,25.023-27.944c8.682-9.816,9.077-13.264-0.033-21.963
			c-12.855-12.272-24.937-26.475-40.094-34.917c-15.354-8.552-33.754-13.158-51.367-15.712c-19.103-2.771-35.586-8.683-49.568-21.84
			c-2.081-1.958-4.655-4.264-7.226-4.586c-2.758-0.347-6.438,0.763-8.434,2.619c-1.04,0.967-0.061,5.41,1.302,7.389
			c2.819,4.096,6.512,7.597,10.322,11.881c-7.401,5.504-12.677,5.435-17.319-2.277c-3.342-5.553-6.523-11.661-11.281-15.793
			c-7.683-6.675-17.308-2.828-26.186-2.232c-7.919,0.535-15.826,1.285-23.741,1.877c-1.433,0.106-2.917-0.318-4.329-0.126
			c-27.446,3.729-54.864,7.625-82.326,11.232c-13.888,1.823-27.875,2.909-41.755,4.79c-6.781,0.918-13.452,2.746-20.11,4.411
			c-23.619,5.908-47.246,11.791-70.788,17.989c-5.794,1.526-11.281,4.202-16.912,6.353c-0.343,1.175-0.69,2.346-1.032,3.521
			c7.091,3.635,14.178,7.274,21.922,11.245c-21.302,6.275-41.021,7.181-59.601-7.218c-12.309-9.539-25.149-18.597-38.642-26.324
			c-8.103-4.643-17.911-6.308-28.291-7.633c7.03,14.223-2.007,34.537,18.776,42.215c-3.729,0-7.462,0-12.839,0
			C3.02,251.35,14.701,278.572,0,303.79c0.678,0.791,1.355,1.579,2.036,2.37c6.773-1.122,14.104-0.959,20.208-3.614
			c15.247-6.635,30.216-14.036,44.77-22.089c15.933-8.816,32.065-13.386,49.919-7.087c2.558,0.902,4.945,2.301,8.69,4.076
			c-8.662,3.391-16.03,5.695-22.771,9.196c-2.636,1.371-5.924,6.062-5.292,8.131c1.073,3.5,4.562,8,7.846,8.812
			c30.277,7.482,59.71,17.278,88.932,28.205c14.08,5.263,29.543,11.102,45.296,4.643c9.776-4.011,19.474-8.372,28.724-13.455
			c4.937-2.714,8.066-3.436,12.007,1.338c2.117,2.566,5.7,5.06,8.878,5.431c27.597,3.247,55.251,6.001,82.885,8.947
			c0.579,0.062,1.102,0.652,1.641,0.991c-13.24,10.828-9.396,25.08-9.355,39.348c0.04,13.713-4.774,27.658,10.191,37.091
			c24.325-21.203,35.892-49.082,37.883-82.819c15.015,0.86,29.086,3.027,42.958,2.13c17.928-1.159,36.504-2.347,53.334-7.932
			c21.053-6.989,40.694-18.299,60.743-28.156c3.134-1.542,5.193-5.259,7.752-7.973c-0.608-1.064-1.22-2.129-1.828-3.19
			C564.852,288.176,554.256,288.176,540.596,288.176z"/>
	</g>
</g>
<g>
</g>
<g>
</g>
<g>
</g>
<g>
</g>
<g>
</g>
<g>
</g>
<g>
</g>
<g>
</g>
<g>
</g>
<g>
</g>
<g>
</g>
<g>
</g>
<g>
</g>
<g>
</g>
<g>
</g>
</svg>
