<?xml version="1.0" encoding="iso-8859-1"?>
<!-- Generator: Adobe Illustrator 16.0.0, SVG Export Plug-In . SVG Version: 6.00 Build 0)  -->
<!DOCTYPE svg PUBLIC "-//W3C//DTD SVG 1.1//EN" "http://www.w3.org/Graphics/SVG/1.1/DTD/svg11.dtd">
<svg version="1.1" id="Capa_1" xmlns="http://www.w3.org/2000/svg" xmlns:xlink="http://www.w3.org/1999/xlink" x="0px" y="0px"
	 width="575.24px" height="575.24px" viewBox="0 0 575.24 575.24" style="enable-background:new 0 0 575.24 575.24;"
	 xml:space="preserve">
<g>
	<g>
		<path d="M25.39,186.147c24.345,27.173,61.502,38.858,97.459,45.056c21.204,3.655,42.64,5.826,63.815,9.682
			c17.446,3.178,39.735,6.218,54.37,16.524c0.955,0.673-3.827,4.602-4.422,4.888c-2.64,1.261-4.774,0.347-7.409,0.188
			c-7.507-0.453-15.047-0.632-22.567-0.869c-15.096-0.481-30.208-0.722-45.308-0.29c-30.298,0.869-60.764,4.463-89.605,14.158
			c-5.067,1.701-10.257,3.705-13.966,7.56c-6.324,6.569-3.423,15.194,2.028,21.46c3.774,4.342,8.715,7.495,13.762,10.245
			c13.431,7.323,28.176,12.216,43.309,14.436c6.124,0,19.943,0.591,23.958,5.977c3.402,4.565-2.665,10.886-4.929,15.394
			c-3.807,7.564-7.609,15.129-11.416,22.693c-3.517,6.993-7.213,14.211-13.305,19.127c-8.438,6.81-19.939,8.054-29.939,12.236
			c-6.638,2.774-34.542,20.212-27.418,30.783c4.002,5.94,24.656-13.312,30.188-15.993c9.963-4.823,20.522-8.552,29.788-14.61
			c22.244-14.542,22.159-40.033,40.131-55.848c7.736,4.957,12.428,10.021,22.403,10.743c8.829,0.636,17.903-1.73,25.553-6.108
			c14.557-8.335,21.098-22.677,33.093-33.142c3.949,3.085,4.023,7.654,1.028,11.399c-19.723,24.7-48.454,30.996-59.776,63.55
			c-7.364,21.18-9.013,44.142-17.634,64.844c-7.417,17.81-19.666,33.158-28.523,50.298c-6.3,12.191-16.222,32.343-14.819,46.5
			c0.604,6.1,3.04,10.27,9.078,7.605c6.23-2.75,5.157-13.272,5.904-18.376c2.517-17.128,9.372-33.452,20.322-46.916
			c7.201-8.854,16.128-16.598,20.849-26.985c5.357-11.787,4.565-25.312,6.613-38.095c5.125-32.008,27.932-48.716,49.246-70.025
			c6.451-6.45,12.64-18.201,22.044-20.009c1.391-0.265,4.002-0.109,4.186,0.453c1.489,4.635-4.851,10.058-6.862,13.979
			c-2.734,5.337-4.533,11.105-5.716,16.973c-2.371,11.755-2.207,23.913-1.403,35.818c1.114,16.549,3.203,33.134,8.107,48.98
			c4.904,15.847,12.742,30.996,24.272,42.917c1.163,1.2,2.407,2.362,3.786,3.285c2.619,3.354,6.667,5.663,12.228,5.663
			c5.965,0,10.176-2.66,12.763-6.418c0.963-0.771,1.86-1.641,2.717-2.525c11.534-11.922,19.368-27.071,24.272-42.918
			s6.988-32.432,8.106-48.98c0.8-11.909,0.967-24.067-1.403-35.818c-1.184-5.867-2.982-11.636-5.716-16.973
			c-2.012-3.921-8.353-9.343-6.863-13.979c0.18-0.562,2.795-0.718,4.187-0.452c9.408,1.808,15.594,13.558,22.044,20.008
			c21.314,21.31,44.121,38.021,49.246,70.025c2.048,12.782,1.257,26.312,6.613,38.095c4.721,10.388,13.651,18.132,20.849,26.985
			c10.951,13.464,17.806,29.784,20.323,46.916c0.75,5.104-0.327,15.63,5.903,18.376c6.038,2.664,8.475-1.506,9.078-7.605
			c1.399-14.157-8.52-34.309-14.818-46.499c-8.858-17.141-21.11-32.489-28.523-50.299c-8.621-20.701-10.266-43.664-17.634-64.843
			c-11.322-32.555-40.054-38.846-59.776-63.551c-2.99-3.749-2.921-8.314,1.028-11.399c11.995,10.466,18.535,24.807,33.093,33.142
			c7.65,4.378,16.724,6.749,25.553,6.108c9.976-0.718,14.668-5.785,22.403-10.743c17.977,15.814,17.887,41.307,40.131,55.848
			c9.266,6.059,19.825,9.788,29.788,14.61c5.533,2.677,26.182,21.934,30.188,15.993c7.123-10.566-20.779-28.009-27.418-30.783
			c-10.004-4.178-21.506-5.427-29.938-12.236c-6.092-4.916-9.788-12.134-13.306-19.127c-3.807-7.564-7.613-15.129-11.415-22.692
			c-2.269-4.509-8.332-10.829-4.929-15.395c4.015-5.386,17.829-5.977,23.957-5.977c15.133-2.22,29.878-7.111,43.31-14.436
			c5.047-2.754,9.988-5.907,13.762-10.245c5.451-6.267,8.352-14.892,2.028-21.46c-3.709-3.852-8.899-5.854-13.966-7.56
			c-28.842-9.694-59.303-13.293-89.605-14.158c-15.1-0.433-30.212-0.196-45.309,0.29c-7.515,0.241-15.059,0.417-22.566,0.869
			c-2.636,0.159-4.77,1.073-7.409-0.188c-0.596-0.286-5.377-4.215-4.423-4.888c14.635-10.306,36.924-13.345,54.37-16.524
			c21.171-3.859,42.607-6.026,63.815-9.682c35.957-6.198,73.109-17.883,97.459-45.056c16.141-18.013,25.357-42.081,25.378-66.267
			c0.008-9.939-3.031-22.534-9.915-30.429c-4.777-5.476-11.403-8.69-20.15-7.181c-4.97,0.856-9.576,3.097-14.104,5.312
			c-29.396,14.37-58.924,28.817-85.84,47.422c-19.592,13.542-37.613,29.156-56.067,44.17c-9.359,7.613-18.833,15.096-28.687,22.069
			c-4.924,3.484-9.959,6.777-15.043,10.017c-4.981,3.174-6.784,3.133-11.187-1.342c2.288,2.325,31.514-23.546,34.08-26.671
			c10.322-12.583,17.055-28.193,18.568-44.435c1.305-14.027-0.857-28.98,5.467-41.567c6.703-13.342,21.126-20.519,33.603-28.728
			c7.879-5.186,37.055-32.473,16.884-39.291c-8.205,13.044-15.129,22.387-28.124,31.845c-12.57,9.147-26.956,17.617-34.235,31.983
			c-7.561,14.929-5.304,32.783-8.771,49.152c-3.305,15.606-12.163,29.649-24.333,39.87c-2.885,2.424-11.73,12.375-14.9,13.138
			c-9.784,2.342-18.649-13.852-21.918-21c0.693,1.521,20.135-3.387,11.596-8.711c-4.317-2.693-6.039-7.075-8.968-10.686
			c-6.781-8.364-7.426-18.209-5.672-27.573c1.285-6.858,1.93-13.786,3.166-20.628c0.4-2.207,0.119-4.537,0.506-6.752
			c5.427-31.13,13.595-59.327,39.666-79.711c8.033-6.283,9.033-12.293-2.354-9.792c-6.332,1.391-12.243,7.895-16.43,12.407
			c-8.891,9.592-16.528,21.718-21.298,33.917c-4.182,10.69-6.336,22.041-8.474,33.317c-1.221,6.434-1.139,17.324-4.35,22.958
			c-1.298,2.277-3.031,3.301-4.647,4.488c-1.632-0.539-3.395-0.918-5.415-0.918c-2.167,0-4.051,0.416-5.773,1.036
			c-1.665-1.236-3.484-2.244-4.831-4.602c-3.211-5.635-3.129-16.524-4.35-22.958c-2.134-11.277-4.292-22.628-8.474-33.317
			c-4.773-12.199-12.407-24.325-21.297-33.917c-4.187-4.513-10.094-11.016-16.43-12.407c-11.383-2.501-10.388,3.513-2.354,9.792
			c26.071,20.383,34.24,48.58,39.666,79.711c0.387,2.211,0.106,4.545,0.506,6.752c1.236,6.842,1.881,13.77,3.166,20.629
			c1.754,9.363,1.11,19.208-5.671,27.572c-2.929,3.611-4.651,7.993-8.968,10.686c-8.54,5.325,10.902,10.233,11.596,8.711
			c-3.269,7.148-12.134,23.346-21.918,21c-3.17-0.763-12.012-10.714-14.9-13.138c-12.17-10.221-21.028-24.268-24.333-39.87
			c-3.468-16.369-1.208-34.227-8.772-49.151c-7.279-14.366-21.665-22.836-34.235-31.983c-12.995-9.458-19.918-18.801-28.124-31.844
			c-20.171,6.813,9.009,34.104,16.883,39.291c12.473,8.209,26.896,15.386,33.599,28.727c6.324,12.587,4.162,27.54,5.467,41.567
			c1.514,16.243,8.246,31.849,18.568,44.436c2.566,3.129,31.791,28.997,34.08,26.671c-4.402,4.472-6.202,4.517-11.188,1.342
			c-5.083-3.24-10.118-6.532-15.043-10.017c-9.849-6.973-19.327-14.455-28.687-22.068c-18.454-15.015-36.475-30.629-56.067-44.17
			c-26.92-18.604-56.442-33.052-85.839-47.422c-4.529-2.215-9.135-4.455-14.104-5.312c-8.744-1.51-15.374,1.702-20.151,7.181
			C3.027,97.354-0.012,109.949,0,119.888C0.033,144.07,9.25,168.134,25.39,186.147z"/>
	</g>
</g>
<g>
</g>
<g>
</g>
<g>
</g>
<g>
</g>
<g>
</g>
<g>
</g>
<g>
</g>
<g>
</g>
<g>
</g>
<g>
</g>
<g>
</g>
<g>
</g>
<g>
</g>
<g>
</g>
<g>
</g>
</svg>
