<?xml version="1.0" encoding="iso-8859-1"?>
<!-- Generator: Adobe Illustrator 16.0.0, SVG Export Plug-In . SVG Version: 6.00 Build 0)  -->
<!DOCTYPE svg PUBLIC "-//W3C//DTD SVG 1.1//EN" "http://www.w3.org/Graphics/SVG/1.1/DTD/svg11.dtd">
<svg version="1.1" id="Capa_1" xmlns="http://www.w3.org/2000/svg" xmlns:xlink="http://www.w3.org/1999/xlink" x="0px" y="0px"
	 width="579.332px" height="579.332px" viewBox="0 0 579.332 579.332" style="enable-background:new 0 0 579.332 579.332;"
	 xml:space="preserve">
<g>
	<g>
		<path d="M116.621,319.938c8.083,0.941,16.214,1.457,24.333,2.061c10.914,0.807,21.917,0.953,32.722,2.512
			c5.189,0.752,9.829,4.814,15.031,6.088c7.291,1.783,14.859,2.502,22.342,3.428c10.449,1.293,13.337,4.361,12.636,14.773
			c-1.452,21.629-4.929,42.914-11.514,63.623c-0.412,1.293-0.795,2.637-1.465,3.803c-5.051,8.822-4.635,18.646-5.814,28.299
			c-1.946,15.961,0.131,32.412-5.61,47.916c-0.232,0.633-0.628,1.457-0.412,1.963c3.06,7.184-1.567,13.436-2.477,20.109
			c-1.383,10.123-2.717,20.131-0.498,30.322c1.46,6.713,4.626,7.807,11.391,2.648c1.012,3.893,1.86,7.471,2.885,10.996
			c1.008,3.463,2.195,6.879,3.488,10.893c6.928-5.152,6.96-11.693,7.026-18.637c0.624,1.49,1.436,2.934,1.84,4.48
			c1.604,6.152,3.072,12.342,4.603,18.514c0.228,0.924,0.351,1.955,0.865,2.701c0.616,0.895,1.636,2.15,2.419,2.109
			c0.84-0.041,2.056-1.277,2.342-2.223c1.449-4.781,2.648-9.641,4.109-15.141c4.002,5.625,3.052,13.039,7.009,18.156
			c0.408-0.074,0.82-0.152,1.228-0.225c1.432-7.271,2.86-14.545,4.292-21.816c0.379-0.082,0.759-0.158,1.139-0.24
			c1.856,3.137,3.712,6.271,5.569,9.408c0.465-0.209,0.93-0.42,1.396-0.629c0.404-6.965,0.804-13.928,1.232-21.375
			c2.839,2.135,5.561,4.182,8.286,6.227c0.42-0.146,0.841-0.299,1.261-0.445c-0.31-1.938-0.624-3.875-0.816-5.074
			c1.191-1.832,2.774-3.266,3.097-4.941c1.183-6.111,1.024-6.141,7.107-4.455c0.51,0.139,1.053,0.158,1.914,0.285
			c1.457-3.088,3.688-5.904-0.857-8.014c1.322-3.193,2.648-5.65,6.283-6.564c1.485-0.371,3.272-2.734,3.411-4.324
			c0.13-1.477-1.75-3.129-2.938-5.002c2.889-2.914,4.296-8.883,10.856-6.537c-0.664-5.111-1.256-9.693-1.926-14.834
			c2.611-0.201,5.174-0.393,8.765-0.666c-1.579-1.979-2.591-3.248-3.812-4.777c3.158-3.59,3.31-7.523-0.301-11.461
			c2.432,0.225,4.483,0.715,6.479,0.535c5.537-0.49,6.107-1.893,2.439-7.164c2.326-0.906,4.582-1.555,6.586-2.664
			c0.979-0.543,2.183-2.033,2.061-2.93c-0.322-2.352,0.02-4.076,2.309-5.012c2.855-1.166,2.791-4.096,1.633-5.418
			c-3.049-3.488-1.433-4.875,1.688-5.748c0.135-0.539,0.241-0.715,0.192-0.795c-4.113-6.688,1.102-8.438,5.531-10.744
			c0.355-0.184,0.363-2.219-0.117-2.631c-2.163-1.844-1.424-3.236,0.367-4.598c2.08-1.584,2.75-3.135,1.599-5.92
			c-0.551-1.334,1.163-3.607,2.138-6.219c-0.682-1.779-3.781-4.332-0.399-7.65c0.412-0.404-0.237-1.885-0.399-2.893
			c1.574-0.207,2.982-0.391,4.528-0.596c-2.705-4.777-2.705-4.777,1.232-9.473c-0.579-0.67-1.114-1.441-1.8-2.041
			c-0.697-0.607-1.542-1.045-2.473-1.656c0.217-0.686,0.229-1.506,0.641-1.889c2.473-2.305,4.138-4.5,0.176-6.988
			c-0.449-0.283-0.885-1.52-0.682-1.748c2.375-2.709,0.926-4.402-1.146-6.404c-0.562-0.543-0.15-3.232,0.641-3.824
			c2.477-1.844,5.35-3.156,8.319-4.818c-1.24-1.562-2.876-3.623-5.222-6.576c4.349-0.738,7.947-1.355,11.868-2.02
			c-0.996-1.225-1.89-2.322-2.966-3.652c3.745-3.5,8.335-3.377,12.651-3.422c5.23-0.053,10.466,0.582,15.704,0.852
			c1.191,0.062,2.534,0.16,3.574-0.297c7.01-3.072,13.419,0.215,19.841,1.99c4.99,1.379,9.629,3.979,14.545,5.68
			c6.61,2.289,13.276,4.484,20.037,6.264c8.552,2.248,17.234,3.99,25.839,6.045c5.822,1.393,11.547,3.318,17.434,4.273
			c3.097,0.5,6.802,2.248,9.707-1.107c0.293-0.338,1.272-0.158,1.921-0.098c7.691,0.756,18.634-6.131,21.114-13.354
			c0.253-0.742,0.429-1.611,0.302-2.361c-0.824-4.908-0.853-4.904,2.587-8.898c-2.415-2.783-2.692-5.721-1.146-9.344
			c1.697-3.979-2.509-12.693-5.953-15.26c-1.334-0.996-2.203-3.619-2.056-5.402c0.412-5.01-1.285-8.711-6.075-10.408
			c-3.166-1.121-6.54-1.66-9.816-2.463c-3.741-0.918-7.54-2.775-11.212-2.559c-7.405,0.436-14.749,1.967-22.109,3.109
			c-20.253,3.141-40.621,5.703-60.702,9.715c-11.236,2.242-20.674-2.705-30.906-4.496c-0.686-0.119-1.571-0.682-1.853-1.277
			c-2.795-5.912-6.887-10.082-13.745-10.805c-0.494-0.053-0.955-0.412-1.448-0.637c1.272-2.061,2.477-4.014,4.104-6.646
			c-1.596-0.86-2.991-1.615-4.387-2.37c0.249-0.31,0.498-0.62,0.747-0.93c2.354,0,4.745,0.237,7.054-0.102
			c1.127-0.167,2.481-1.216,2.987-2.236c0.277-0.567-0.743-2.293-1.596-2.807c-3.778-2.289-7.703-4.329-12.154-6.773
			c0.812-0.828,1.742-1.979,2.872-2.885c1.474-1.183,3.244-2.011,4.635-3.268c3.66-3.309,3.607-3.37-0.334-6.209
			c-1.979-1.424-2.138-7.663-0.139-9.539c1.574-1.477,2.811-2.513,2.411-5.357c-0.236-1.665,2.807-3.798,4.786-6.226
			c-1.73-3.109-1.444-6.422,2.207-9.278c0.633-0.494,0.412-3.227-0.351-4.133c-1.816-2.163-1.828-3.848,0.253-5.553
			c2.505-2.056,1.893-3.888,0.326-6.324c-0.747-1.159-0.669-3.753,0.159-4.859c3.198-4.259,3.501-4.99-0.792-8.005
			c-3.112-2.187-3.517-3.741-0.412-6.087c0.511-0.388,0.771-2.175,0.474-2.399c-4.043-2.987-1.143-5.316,0.592-7.777
			c0.229-0.322,0.371-0.709,0.611-1.187c-2.77-3.497-5.847-6.834-8.176-10.632c-0.763-1.24,0.42-3.672,0.832-6.349
			c-0.44-0.225-1.75-0.767-2.93-1.522c-1.081-0.693-2.938-1.779-2.823-2.395c0.229-1.261,1.371-2.542,2.456-3.427
			c2.273-1.853,4.75-3.452,6.479-4.68c-1.804-2.656-3.023-5.031-4.794-6.879c-1.306-1.363-3.321-2.044-5.23-3.149
			c1.212-4.778,1.787-9.515-1.738-14.06c-1.751-2.252,0.392-3.725,2.525-4.9c1.562-0.865,3.407-2.219,3.909-3.758
			c0.783-2.382-1.437-2.815-3.362-3.472c-1.077-0.367-1.901-1.975-2.473-3.194c-0.685-1.457-0.979-3.097-1.603-5.21
			c0.488-0.318,1.595-0.971,2.623-1.726c3.374-2.473,3.378-4.745,0.057-7.173c-2.469-1.807-3.125-5.752-1.407-8.425
			c0.575-0.893,1.126-1.803,1.669-2.676c-3.098-1.604-7.406-2.452-8.544-4.823c-1.106-2.301,1.036-6.165,1.86-9.816
			c-7.646-1.55-5.442-7.646-5.178-13.88c-3.941,0.571-7.531,1.093-10.759,1.559c1.126-6.455,2.272-13.007,3.415-19.56
			c-0.262-0.339-0.521-0.682-0.783-1.02c-2.546,1.815-5.088,3.635-8.613,6.148c0.307-5.182,0.388-9.682,0.882-14.141
			c0.489-4.406,1.396-8.768,2.089-12.958c-7.85,7.005-12.6,17.193-19.678,25.822c3.859-14.023,11.117-27.532,6.699-42.645
			c-0.522-0.204-1.045-0.404-1.566-0.607c-7.223,14.929-14.444,29.853-21.665,44.782c-0.282-0.123-0.563-0.245-0.845-0.367
			c2.118-6.165,4.239-12.33,6.667-19.396c-3.011,0.942-4.157,0.738-6.124,1.354c4.394-4.68,8.295-8.335,8.621-15.182
			c0.294-6.173,0.061-12.371-0.693-18.768c-8.785,13.941-12.469,29.967-19.005,45.851c0.567-8.038,1.069-14.994,1.469-21.955
			c0.008-0.151-1.159-0.372-1.032-0.334c0.412-4.77,0.808-9.343,1.2-13.917c-0.547-0.175-1.089-0.351-1.636-0.526
			c-1.334,2.624-3.105,5.121-3.921,7.899c-3.052,10.42-6.189,20.849-8.531,31.44c-2.105,9.527-3.121,19.291-4.81,28.915
			c-0.702,3.994-2.432,7.858-2.795,11.86c-0.853,9.445-0.955,18.96-1.779,28.409c-0.445,5.08-1.738,10.086-2.66,15.125
			c-2.334,12.774-4.876,25.517-6.867,38.348c-0.498,3.203,1.028,6.67,1.211,10.037c1.089,19.882,0.147,39.686-2.652,59.396
			c-1.489,10.494-2.321,21.151-4.794,31.412c-3.415,14.17-10.388,26.325-24.708,32.436c-2.317,0.986-4.986,1.477-7.52,1.592
			c-14.108,0.615-28.229,1.439-42.342,1.41c-10.849-0.02-21.689-1.346-32.546-1.807c-7.528-0.322-14.896-0.775-21.734,4.432
			c-3.056,2.328-8.246,2.162-12.521,2.512c-6.834,0.564-13.713,0.617-20.571,0.887c-0.008,0.484-0.016,0.971-0.028,1.455
			c5.573,0.311,11.179,0.344,16.708,0.996C96.572,317.045,106.564,318.766,116.621,319.938z"/>
	</g>
</g>
<g>
</g>
<g>
</g>
<g>
</g>
<g>
</g>
<g>
</g>
<g>
</g>
<g>
</g>
<g>
</g>
<g>
</g>
<g>
</g>
<g>
</g>
<g>
</g>
<g>
</g>
<g>
</g>
<g>
</g>
</svg>
