<?xml version="1.0" encoding="iso-8859-1"?>
<!-- Generator: Adobe Illustrator 16.0.0, SVG Export Plug-In . SVG Version: 6.00 Build 0)  -->
<!DOCTYPE svg PUBLIC "-//W3C//DTD SVG 1.1//EN" "http://www.w3.org/Graphics/SVG/1.1/DTD/svg11.dtd">
<svg version="1.1" id="Capa_1" xmlns="http://www.w3.org/2000/svg" xmlns:xlink="http://www.w3.org/1999/xlink" x="0px" y="0px"
	 width="605.158px" height="605.158px" viewBox="0 0 605.158 605.158" style="enable-background:new 0 0 605.158 605.158;"
	 xml:space="preserve">
<g>
	<g>
		<path d="M604.562,102.469c-6.038-8.36-14.345-12.595-24.684-12.595c-5.712,0-10.71,1.33-13.391,2.044l-0.567,0.151
			c-0.44,0.114-1.391,0.11-1.881-0.012c-0.71-0.175-1.444-0.355-2.264-0.571c-0.775-0.204-2.008-0.31-2.763-0.229
			c-12.982,1.347-21.24,5.635-26.173,8.201l-1.163,0.6c-0.351,0.179-1.118,0.29-1.64,0.191c-0.898-0.163-2.71-0.444-4.852-0.498
			c-2.823,0-20.286,7.532-26.251,10.849c-0.343,0.192-1.105,0.339-1.782,0.347c-0.425,0.004-0.792,0.061-1.118,0.126
			c-1.139,0.233-1.991,0.47-2.534,0.702c-3.41,1.452-10.909,5.312-14.476,7.581c-0.489,0.31-1.371,0.698-1.926,0.849
			c-3.623,0.971-7.066,2.815-10.241,5.479c-0.375,0.314-1.154,0.665-1.636,0.743c-4.643,0.722-7.907,2.207-10.285,3.292
			c-0.665,0.302-1.253,0.571-1.775,0.771c-2.611,1.024-5.504,4.525-6.797,6.43c-0.221,0.322-0.833,0.73-1.306,0.873
			c-2.269,0.686-5.186,2.55-7.74,4.243c-0.412,0.273-1.272,0.559-1.86,0.677c-0.877,0.171-1.86,0.478-2.93,0.906
			c-0.868,0.351-2.076,1.093-2.305,1.236c-1.15,0.718-2.664,1.583-4.321,2.525c-3.831,2.187-8.176,4.664-10.942,6.924
			c-0.514,0.424-1.334,1.024-1.84,1.318l-0.547,0.314c-5.965,3.415-12.13,6.948-16.426,10.429c-0.457,0.371-1.306,0.918-1.86,1.191
			c-3.354,1.685-6.365,4.039-8.16,5.443c-0.628,0.493-1.126,0.885-1.485,1.122c-2.203,1.55-3.484,3.048-4.721,4.492
			c-1.872,2.187-3.644,4.251-8.604,6.773c-0.62,0.318-1.624,0.926-2.231,1.396l-10.535,8.172l-1.782,1.526
			c-5.166,4.402-8.576,7.312-11.485,11.555c-0.331,0.485-0.983,1.277-1.428,1.689l-9.385,8.752c-0.444,0.42-1.212,1.016-1.815,1.493
			c-2.945,2.305-6.006,6.124-8.707,9.494c-1.216,1.514-2.337,2.917-3.312,3.999c-0.498,0.559-1.208,1.444-1.6,2.056l-2.37,3.729
			l-1.542,2.016c-0.437,0.571-1.069,1.579-1.371,2.33c-1.71,4.207-3.301,11.188-3.766,13.505c-0.054,0.241-0.163,0.641-0.298,1.146
			c-0.155,0.571-0.347,1.269-0.539,2.032c-0.09,0.351-0.51,0.845-0.865,1.016c-2.194,1.044-4.075,2.387-5.267,3.329
			c-0.18,0.135-0.567,0.167-0.698,0.065c-1.383-1.036-3.256-2.358-5.435-3.398c-0.347-0.164-0.771-0.665-0.861-1.008
			c-0.192-0.767-0.384-1.465-0.539-2.036c-0.135-0.51-0.249-0.906-0.294-1.126c-0.469-2.334-2.061-9.319-3.77-13.521
			c-0.302-0.751-0.934-1.763-1.371-2.33l-1.489-1.942l-2.424-3.798c-0.392-0.616-1.102-1.501-1.603-2.061
			c-0.971-1.085-2.097-2.485-3.313-3.999c-2.701-3.37-5.761-7.185-8.776-9.551c-0.514-0.404-1.289-1.012-1.746-1.44l-9.388-8.748
			c-0.437-0.412-1.093-1.204-1.424-1.689c-2.913-4.244-6.324-7.152-11.485-11.555l-12.317-9.698
			c-0.604-0.469-1.612-1.077-2.232-1.396c-4.965-2.517-6.732-4.586-8.604-6.772c-1.236-1.444-2.518-2.942-4.745-4.509
			c-0.334-0.22-0.833-0.612-1.46-1.105c-1.795-1.408-4.807-3.758-8.164-5.447c-0.543-0.273-1.396-0.816-1.853-1.188
			c-4.292-3.476-10.445-7.001-16.397-10.416l-0.587-0.339c-0.502-0.286-1.318-0.889-1.836-1.313
			c-2.767-2.26-7.107-4.741-10.943-6.924c-1.656-0.942-3.17-1.808-4.325-2.525c-0.502-0.318-1.559-0.935-2.301-1.241
			c-1.061-0.428-2.044-0.73-2.921-0.905c-0.592-0.114-1.449-0.4-1.869-0.673c-2.55-1.693-5.463-3.554-7.736-4.243
			c-0.481-0.147-1.098-0.555-1.31-0.874c-1.298-1.909-4.19-5.41-6.806-6.438c-0.518-0.2-1.105-0.469-1.771-0.771
			c-2.379-1.085-5.643-2.57-10.286-3.293c-0.481-0.077-1.265-0.428-1.632-0.738c-3.166-2.66-6.614-4.504-10.245-5.483
			c-0.559-0.151-1.444-0.535-1.926-0.845c-3.57-2.272-11.065-6.132-14.472-7.581c-0.547-0.232-1.399-0.469-2.534-0.698
			c-0.322-0.069-0.69-0.122-1.122-0.126c-0.673-0.008-1.44-0.159-1.787-0.347c-5.961-3.317-23.419-10.849-26.288-10.849
			c-2.101,0.049-3.913,0.334-4.814,0.498c-0.494,0.086-1.285-0.012-1.632-0.191l-1.155-0.596
			c-4.937-2.566-13.194-6.863-26.185-8.205c-0.775-0.086-1.987,0.024-2.758,0.229c-0.816,0.212-1.559,0.396-2.272,0.571
			c-0.481,0.126-1.44,0.13-1.877,0.012l-0.567-0.151c-2.681-0.714-7.679-2.044-13.391-2.044c-10.339,0-18.642,4.239-24.684,12.595
			c-0.906,1.244-0.779,2.636,0.326,3.717c0.694,0.689,2.154,0.922,3.215,0.571c0.653-0.225,1.624-0.641,2.562-1.677
			c0.302-0.335,7.532-8.213,15.9-8.891c3.415-0.281,11.538,0.567,14.733,0.894l1.473,0.143c9.099,0.71,19.788,3.105,30.898,6.928
			c0.535,0.184,1.29,0.657,1.595,0.991c0.229,0.253,0.404,0.473,0.555,0.665c0.428,0.539,0.836,1.044,1.656,1.24l0.506,0.114
			c4.459,1.024,17.948,4.129,30.898,10.033c-0.061,0.424-0.18,1.444,0.795,1.901c8.299,3.794,12.122,5.084,16.165,6.446
			c1.367,0.461,2.742,0.922,4.317,1.494c3.509,1.273,8.466,3.753,10.196,5.108c2.423,1.922,8.604,5.019,14.06,7.752
			c2.868,1.44,5.349,2.681,6.752,3.493c1.595,0.918,3.439,2.228,5.218,3.497c2.848,2.028,5.537,3.941,7.589,4.614
			c1.714,0.575,9.327,4.982,15.888,8.919c0.363,0.216,0.894,0.702,1.318,1.094l0.383,0.347c0.273,0.245,0.542,0.42,0.877,0.636
			c0.534,0.343,1.265,0.816,2.68,2.142c2.252,2.13,12.926,9.359,14.868,10.306c1.853,0.918,3.676,2.411,5.284,3.733
			c0.596,0.49,1.159,0.947,1.656,1.33c1.856,1.44,8.927,6.357,9.278,6.602c1.138,0.682,4.153,3.003,6.353,4.696l13.578,11.363
			c0.494,0.416,1.252,1.13,1.693,1.599l3.292,3.493c1.35,1.44,2.591,2.758,3.562,3.774c1.551,1.632,2.783,2.88,4.142,4.26
			c1.032,1.044,2.138,2.166,3.504,3.582l8.772,9.221c1.942,1.763,4.255,3.929,4.958,5.067c0.808,1.359,1.942,2.599,3.137,3.917
			c0.453,0.498,0.926,1.016,1.404,1.562c0.338,0.392,0.738,1.191,0.816,1.648l0.106,0.604c0.22,1.261,0.424,2.452,1.036,3.162
			c0.155,0.188,0.318,0.506,0.494,0.845c0.282,0.539,0.628,1.208,1.167,1.84c0.543,0.633,0.967,1.277,1.089,1.64l0.188,0.576
			c1.008,3.097,2.884,8.857,3.664,11.869c0.086,0.326,0.061,0.612,0.163,0.53c-0.143,0.123-0.286,0.257-0.469,0.445
			c-0.648,0.726-1.317,3.672-1.326,3.717c-0.057,0.351-0.461,0.857-0.816,1.301c-0.535,0.669-1.089,1.355-1.167,2.195
			c-0.428,4.227-0.241,7.401-0.098,9.723c0.082,1.297,0.167,2.774,0.069,3.011c-1.562,0.155-2.048,1.844-2.615,3.807
			c-0.469,1.644-1.061,3.688-2.326,5.128c-0.783,0.894-0.767,2.134,0.037,3.019c0.669,0.738,1.607,2.089,2.236,4.309
			c0.212,0.767,0.326,1.424,0.379,1.909c-1.449-0.359-2.717-0.767-3.839-1.13c-1.44-0.465-2.681-0.865-3.823-1.008
			c-0.943-0.118-2.501-0.184-4.305-0.265l-1.942-0.086c-0.575-0.028-1.559-0.2-2.142-0.375l-7.511-2.252
			c-0.808-0.18-2.432-1.028-4.831-2.521c-0.339-0.208-0.621-0.706-0.6-0.894c0.257-2.726,2.33-8.89,3.33-11.212
			c3.778-8.947,6.997-15.067,7.058-15.198c2.346-5.349,4.084-10.625,4.137-12.558c0.037-1.869-0.648-3.423-1.252-4.57
			c-0.184-0.338-0.343-1.118-0.396-1.893c-0.134-2.109-0.996-5.524-1.562-7.267c-0.277-0.861-1.204-1.538-2.073-1.51
			c-0.722-2.166-2.085-4.9-4.015-7.266c-0.494-0.604-1.334-0.865-1.979-0.608c-0.004-0.004-0.008-0.008-0.012-0.017
			c-0.526-0.681-1.118-1.452-1.575-2.272c-1.089-1.946-2.558-2.982-4.027-4.023c-1.183-0.828-2.799-0.163-2.938,1.175
			c-0.021,0.208-0.033,0.424-0.037,0.648c-2.366-1.693-2.648-2.289-2.668-2.333c-0.253-0.877-0.739-3.925,0.053-5.488
			c0.339-0.661,0.367-1.224,0.09-1.677c-0.318-0.514-0.93-0.726-1.697-0.526c-3.056,0.788-4.737,3.533-4.99,8.144
			c-0.131,2.003,2.493,6.03,7.111,9.303c0.078,0.057,0.22,0.33,0.302,0.494c0.212,0.404,0.474,0.901,0.971,1.236l0.298,0.196
			c0.698,0.444,1.991,1.277,4.305,3.374c0.102,0.094,0.188,0.208,0.249,0.306c-0.085,0.139-0.147,0.294-0.163,0.437
			c-0.057,0.506,0.225,0.812,0.604,1.236c0.216,0.229,0.795,0.775,1.538,1.469c1.351,1.265,4.508,4.223,4.875,4.961
			c0.542,1.077,0.102,4.459-1.562,12.061c-0.334,1.514-1.604,5.047-3.072,9.143c-3.529,9.829-8.364,23.289-8.226,29.817
			c0.021,1.767,0.555,4.464,2.979,7.296c1.249,1.455,3.264,2.844,5.675,3.896c0.686,0.297,1.803,0.627,2.509,0.791l6.279,1.443
			c2.583,0.404,5.732,0.85,8.621,1.254c3.558,0.502,7.588,1.064,8.054,1.211c0.257,0.139,0.579,0.248,0.792,0.262
			c0.041,0.041,0.135,0.215,0.147,0.465l0.028,0.701c0.004,0.143-0.191,0.367-0.424,0.424c-2.823,0.711-4.72,2.367-6.242,3.697
			c-1.795,1.566-2.958,2.525-4.708,1.443c-1.138-0.705-2.534-0.174-2.86,1.066c-0.481,1.852-1.281,5.98-1.228,12.807l-1.383-0.254
			c-0.306-0.053-0.693-0.162-1.081-0.264c-0.457-0.127-0.922-0.25-1.277-0.311c-1.718-0.303-5.027-0.486-8.638-0.486
			c-7.96,0-12.46,0.693-13.366,2.064c-1.493,2.248-1.375,4.488-1.285,6.125c0.037,0.723,0.074,1.346-0.041,1.766
			c-0.216,0.828-0.29,2.914-0.433,7.174c-0.151,4.557-0.359,10.795-0.91,17.547c-0.331,4.199-0.718,8.328-1.069,12.064
			c-0.583,6.227-1.045,11.146-1.02,13.9c0.012,1.082,0.693,2.154,1.419,2.6c-2.203,5.242-6.85,11.664-10.147,16.039
			c-0.285,0.375-0.979,0.906-1.452,1.109c-0.4,0.172-0.796,0.352-1.228,0.555c-2.819,1.396-5.867,3.281-9.074,5.609
			c-0.416,0.314-0.824,0.65-1.232,0.98c-0.596,0.484-1.167,0.955-1.702,1.301c-0.84,0.547-1.771,1.209-2.101,2.086
			c-0.8,2.088,0.225,4.133,3.044,6.07c1.02,0.697,2.631,0.379,3.231-0.648c0.686-1.191,1.179-2.754,1.191-3.398
			c0.008-0.209-0.004-0.479-0.02-0.783c-0.025-0.535-0.062-1.27,0.053-1.689c0.062-0.209,0.155-0.393,0.257-0.543
			c0,0,0,0.004,0,0.008c0.053,0.344,0.106,0.711,0.2,1.053c0.334,1.252,2.13,1.633,3.195,0.752c3.994-3.273,7.633-5.428,9.727-5.762
			c0.743-0.119,2.705-0.424,11.281-20.322c0.294,0.02,0.596-0.041,0.869-0.164c0.591-0.26,0.963-0.877,1.289-2.125
			c0.869-3.236,2.346-25.574,1.706-36.609c-0.608-9.924-0.253-13.449,0.123-15.41c0.049-0.238,0.351-0.502,0.559-0.502
			c3.068,0,10.608,0.824,10.988,0.877c0.444,0.184,0.587,0.387,0.853,0.799c0.245,0.367,0.542,0.82,1.102,1.27
			c1.371,1.08,3.048,1.416,4.529,1.713c0.681,0.135,1.342,0.266,1.93,0.469c0.131,0.045,0.4,0.441,0.396,0.793
			c-0.049,6.189,0.135,31.195,0.302,44.133c0.004,0.352-0.265,0.91-0.526,1.086c-0.693,0.465-1.554,0.994-2.505,1.582
			c-2.444,1.51-5.483,3.387-7.748,5.383l-3.419,2.643c-8.172,6.301-13.17,10.266-13.668,12.188
			c-0.074,0.266-0.188,0.648-0.327,1.113c-1.008,3.371-3.104,10.385-1.457,13.641c0.539,1.053,1.363,2.512,2.293,4.156
			c1.302,2.307,2.783,4.922,3.995,7.34c0.265,0.531,0.632,1.486,0.799,2.094l3.68,13.102l0.404,1.053
			c0.82,2.145,1.75,4.586,1.934,6.707c0.188,2.289,2.428,17.512,3.574,22.395c0.143,0.604,0.126,1.199,0.061,1.346
			c-0.314,0.547-0.388,0.988-0.334,1.34c-5.957,2.795-6.813,4.043-7.099,4.463c-0.906,1.301-1.098,2.244-1.236,2.934
			c-0.11,0.559-0.163,0.746-0.359,0.941c-1.032,0.846-7.393,3.311-11.232,3.535c-0.363,0-1.048-0.221-1.706-0.547
			c-1.575-0.797-4.035-1.621-5.667-1.457c-2.554,0.252-6.197,8.152-6.226,8.229c-1.538,3.791,0.722,5.328,1.759,5.814
			c0.938,0.441,2.55,0.486,3.872,0.262c0.641-0.107,1.143-0.49,1.375-1.041c0.245-0.58,0.147-1.27-0.253-1.84
			c-0.347-0.494-0.657-0.971-1.032-1.551l-0.22-0.338c-0.041-0.094-0.012-0.344,0.106-0.703c0.11,0.396,0.347,0.764,0.788,1.045
			c0.767,0.486,2.974,1.168,5.471,1.168c2.664,0,5.031-0.764,6.85-2.232c0,0.004,0,0.004,0,0.008
			c0.09,1.127,0.926,1.943,1.975,1.943c0.082,0,0.412-0.041,0.485-0.059c3.896-0.918,6.997-2.785,8.735-5.268
			c0.608-0.885,0.571-2.113-0.123-3.639c-0.008-0.016-0.012-0.033-0.016-0.049c0.22,0.012,0.473,0.041,0.844,0.082
			c0.404,0.041,1.257,0.832,1.661,1.211l0.233,0.213c0.188,0.158,0.539,0.281,0.779,0.281c2.011,0,9.115-6.725,10.648-13.521
			c0.147-0.629,0.494-1.264,0.714-1.416l0.249-0.166c0.4-0.266,0.812-0.551,1.265-1.004c0.792-0.793,0.975-2.188,0.75-3.098
			c-0.653-2.615-1.391-5.066-2.183-7.291c-2.685-7.422-7.663-20.359-12.734-32.545l-3.884-9.115
			c-0.526-1.191-1.126-2.551-1.665-3.734c-0.143-0.326-0.114-0.967,0.057-1.32l0.343-0.699c0.359-0.734,0.955-1.965,1.053-2.117
			c0.265-0.068,0.542-0.166,0.824-0.289c0.632-0.281,1.616-1.109,1.807-1.273l4.186-3.59c0.412-0.352,1.098-0.678,1.408-0.719
			c0.327-0.045,0.677-0.09,1.061-0.162c1.444-0.266,7.099-3.533,10.465-5.758c0.747,10.812,1.775,19.18,3.052,24.877l0.539,2.428
			c4.198,18.992,10.542,47.693,34.276,49.697l1.004-0.004c23.647-1.994,29.992-30.697,34.19-49.693l0.538-2.428
			c1.273-5.684,2.302-14.027,3.052-24.84c3.419,2.215,9.033,5.455,10.462,5.717c0.387,0.072,0.738,0.117,1.064,0.162
			c0.31,0.045,0.995,0.367,1.407,0.719l4.187,3.59c0.191,0.164,1.175,0.992,1.812,1.273c0.273,0.117,0.424,0.18,0.645,0.203
			c0.27,0.232,0.869,1.465,1.229,2.199l0.338,0.697c0.176,0.355,0.204,0.996,0.065,1.318c-0.542,1.191-1.143,2.551-1.677,3.75
			l-3.876,9.111c-5.071,12.178-10.049,25.115-12.733,32.541c-0.792,2.221-1.53,4.672-2.183,7.287
			c-0.229,0.91-0.041,2.305,0.754,3.102c0.445,0.447,0.854,0.73,1.249,0.99l0.261,0.18c0.217,0.15,0.563,0.787,0.706,1.408
			c1.538,6.801,8.642,13.525,10.653,13.525c0.253,0,0.615-0.131,0.804-0.303l0.208-0.191c0.407-0.379,1.261-1.17,1.896-1.236
			c0.192-0.02,0.393-0.045,0.608-0.057c-0.004,0.016-0.008,0.033-0.017,0.049c-0.693,1.529-0.734,2.754-0.118,3.646
			c1.734,2.473,4.835,4.342,8.731,5.264c0.077,0.018,0.408,0.057,0.485,0.057c1.045,0,1.873-0.803,1.975-1.916
			c1.828,1.439,4.187,2.199,6.851,2.199c2.497,0,4.7-0.682,5.476-1.172c0.433-0.277,0.669-0.637,0.779-1.027
			c0.126,0.346,0.159,0.582,0.122,0.668l-0.232,0.359c-0.376,0.58-0.686,1.057-1.032,1.551c-0.4,0.574-0.494,1.26-0.253,1.84
			c0.232,0.555,0.734,0.934,1.371,1.041c0.518,0.086,1.102,0.143,1.668,0.143c0.894,0,1.633-0.135,2.199-0.404
			c1.045-0.486,3.305-2.027,1.767-5.814c-0.032-0.082-3.672-7.977-6.234-8.232c-1.514-0.131-4.084,0.668-5.658,1.455
			c-0.653,0.332-1.343,0.551-1.738,0.551c-0.004,0-0.004,0-0.004,0c-3.807-0.223-10.164-2.688-11.131-3.467
			c-0.261-0.262-0.313-0.449-0.424-1.008c-0.139-0.689-0.331-1.633-1.232-2.93c-0.29-0.428-1.146-1.678-7.104-4.473
			c0.058-0.346-0.021-0.787-0.33-1.324c-0.073-0.16-0.086-0.752,0.057-1.359c1.146-4.879,3.387-20.105,3.574-22.391
			c0.184-2.127,1.11-4.566,1.935-6.713l4.088-14.16c0.163-0.605,0.53-1.559,0.796-2.09c1.216-2.42,2.692-5.031,3.994-7.34
			c0.934-1.645,1.758-3.105,2.293-4.162c1.644-3.252-0.449-10.266-1.457-13.635c-0.139-0.465-0.253-0.85-0.322-1.105
			c-0.502-1.934-5.5-5.896-13.672-12.195l-3.37-2.604c-2.313-2.035-5.353-3.912-7.797-5.422c-0.95-0.588-1.812-1.117-2.505-1.584
			c-0.258-0.17-0.53-0.725-0.526-1.076c0.167-12.998,0.351-37.947,0.298-44.002c-0.004-0.348,0.253-0.793,0.399-0.854
			c0.604-0.24,1.326-0.396,2.089-0.562c1.433-0.311,3.048-0.662,4.374-1.707c0.555-0.443,0.853-0.896,1.098-1.264
			c0.265-0.412,0.408-0.617,0.693-0.75c0.543-0.104,8.078-0.932,11.22-0.932c0.135,0,0.437,0.266,0.486,0.502
			c0.379,1.963,0.734,5.492,0.122,15.414c-0.641,11.037,0.836,33.371,1.701,36.602c0.331,1.254,0.706,1.869,1.294,2.131
			c0.277,0.121,0.57,0.184,0.868,0.162c8.576,19.898,10.539,20.209,11.277,20.322c2.098,0.34,5.732,2.494,9.731,5.766
			c1.068,0.885,2.859,0.51,3.198-0.754c0.086-0.34,0.143-0.703,0.196-1.049c0-0.004,0-0.004,0-0.008
			c0.102,0.146,0.195,0.326,0.252,0.521c0.115,0.441,0.082,1.176,0.058,1.709c-0.017,0.307-0.028,0.576-0.021,0.768
			c0.013,0.666,0.506,2.229,1.195,3.416c0.596,1.023,2.212,1.346,3.231,0.645c2.819-1.943,3.84-3.986,3.04-6.072
			c-0.339-0.881-1.265-1.537-2.102-2.084c-0.534-0.348-1.105-0.82-1.701-1.303c-0.408-0.33-0.816-0.668-1.249-0.99
			c-3.186-2.318-6.233-4.203-9.073-5.605c-0.416-0.197-0.812-0.381-1.208-0.543c-0.481-0.209-1.167-0.73-1.456-1.111
			c-3.301-4.369-7.94-10.791-10.311-16.145c0.89-0.338,1.57-1.41,1.583-2.496c0.024-2.75-0.437-7.67-1.02-13.896
			c-0.352-3.736-0.739-7.861-1.069-12.068c-0.551-6.748-0.759-12.99-0.91-17.545c-0.143-4.26-0.22-6.344-0.433-7.172
			c-0.109-0.42-0.077-1.045-0.04-1.768c0.085-1.635,0.208-3.875-1.285-6.123c-0.91-1.371-5.406-2.064-13.366-2.064
			c-3.611,0-6.92,0.184-8.638,0.484c-0.359,0.062-0.82,0.184-1.277,0.311c-0.388,0.102-0.771,0.213-1.085,0.266l-1.354,0.27
			c0.032-6.842-0.768-10.971-1.253-12.828c-0.326-1.236-1.729-1.754-2.864-1.057c-1.767,1.094-2.917,0.119-4.7-1.447
			c-1.525-1.33-3.423-2.982-6.246-3.693c-0.236-0.057-0.429-0.281-0.424-0.551l0.024-0.58c0.008-0.244,0.143-0.447-0.005-0.395
			c0.372-0.086,0.69-0.195,0.857-0.295c0.551-0.184,4.582-0.75,8.14-1.252c2.889-0.404,6.038-0.848,8.69-1.264l6.21-1.43
			c0.705-0.162,1.823-0.492,2.509-0.791c2.411-1.053,4.427-2.436,5.671-3.893c2.432-2.831,2.967-5.528,2.982-7.286
			c0.139-6.537-4.691-19.996-8.225-29.829c-1.469-4.092-2.738-7.629-3.072-9.143c-1.665-7.601-2.105-10.979-1.562-12.061
			c0.367-0.734,3.524-3.692,4.875-4.958c0.742-0.693,1.322-1.24,1.604-1.538c0.318-0.351,0.596-0.661,0.543-1.167
			c-0.013-0.127-0.086-0.278-0.172-0.425c0.058-0.098,0.147-0.216,0.253-0.318c2.306-2.093,3.603-2.925,4.301-3.375l0.298-0.196
			c0.497-0.334,0.763-0.836,0.971-1.236c0.086-0.164,0.232-0.437,0.306-0.494c4.619-3.276,7.242-7.303,7.116-9.294
			c-0.253-4.619-1.938-7.364-4.994-8.152c-0.775-0.2-1.383,0.008-1.697,0.526c-0.273,0.453-0.249,1.016,0.086,1.673
			c0.791,1.566,0.31,4.614,0.065,5.471c-0.029,0.065-0.314,0.673-2.677,2.399c-0.004-0.241-0.013-0.465-0.037-0.681
			c-0.139-1.351-1.669-2.081-2.982-1.151c-1.424,1.004-2.893,2.04-3.986,3.995c-0.448,0.816-1.044,1.587-1.57,2.269
			c-0.004,0.004-0.009,0.008-0.013,0.016c-0.62-0.245-1.484,0.004-1.975,0.608c-1.917,2.346-3.272,5.043-4.011,7.267
			c-0.853-0.053-1.795,0.645-2.076,1.505c-0.571,1.75-1.433,5.161-1.567,7.271c-0.053,0.771-0.212,1.55-0.396,1.893
			c-0.6,1.146-1.285,2.701-1.252,4.574c0.053,1.926,1.786,7.206,4.165,12.615c0.033,0.062,3.252,6.186,7.034,15.137
			c0.995,2.313,3.068,8.478,3.325,11.208c0.021,0.184-0.261,0.681-0.6,0.89c-2.399,1.489-4.019,2.338-4.9,2.538l-7.434,2.228
			c-0.592,0.176-1.575,0.347-2.15,0.375l-1.938,0.086c-1.8,0.082-3.358,0.146-4.305,0.265c-1.139,0.143-2.383,0.542-3.823,1.008
			c-1.122,0.363-2.391,0.771-3.818,1.22c0.028-0.579,0.143-1.232,0.351-1.991c0.633-2.228,1.571-3.578,2.24-4.32
			c0.804-0.886,0.819-2.126,0.036-3.02c-1.269-1.444-1.856-3.484-2.325-5.128c-0.567-1.958-1.053-3.651-2.521-3.729
			c-0.191-0.314-0.103-1.787-0.024-3.089c0.139-2.317,0.33-5.496-0.098-9.714c-0.082-0.849-0.633-1.534-1.167-2.203
			c-0.355-0.445-0.764-0.951-0.82-1.318c-0.004-0.028-0.673-2.974-1.362-3.746c-0.172-0.171-0.311-0.269-0.298-0.228
			c-0.024-0.065-0.065-0.359,0.028-0.706c0.771-2.987,2.644-8.727,3.651-11.808l0.208-0.636c0.123-0.372,0.539-1,1.09-1.645
			c0.538-0.632,0.885-1.301,1.167-1.84c0.175-0.339,0.338-0.657,0.473-0.824c0.633-0.734,0.837-1.926,1.057-3.187l0.106-0.608
			c0.081-0.453,0.478-1.252,0.815-1.644c0.478-0.551,0.947-1.069,1.404-1.567c1.195-1.318,2.325-2.558,3.129-3.905
			c0.71-1.15,3.023-3.321,5.019-5.132l8.711-9.164c1.375-1.424,2.48-2.546,3.513-3.59c1.358-1.379,2.591-2.631,4.137-4.255
			c0.976-1.02,2.216-2.342,3.566-3.778l3.297-3.493c0.437-0.469,1.195-1.183,1.688-1.599l12.012-10.159l1.567-1.2
			c2.198-1.693,5.21-4.015,6.405-4.737c0.298-0.208,7.368-5.125,9.217-6.557c0.506-0.388,1.068-0.844,1.664-1.334
			c1.607-1.322,3.432-2.815,5.28-3.733c1.945-0.946,12.619-8.176,14.867-10.302c1.424-1.33,2.15-1.799,2.685-2.146
			c0.335-0.217,0.6-0.392,0.877-0.637l0.384-0.347c0.424-0.392,0.955-0.877,1.322-1.094c6.552-3.933,14.169-8.343,15.879-8.915
			c2.057-0.677,4.745-2.591,7.593-4.615c1.783-1.269,3.627-2.578,5.219-3.497c1.407-0.812,3.884-2.052,6.752-3.492
			c5.455-2.734,11.641-5.834,14.056-7.748c1.734-1.358,6.691-3.843,10.2-5.112c1.575-0.571,2.95-1.032,4.316-1.493
			c4.043-1.363,7.866-2.652,16.169-6.451c0.865-0.404,0.865-1.256,0.792-1.901c12.958-5.904,26.438-9.005,30.897-10.029l0.51-0.118
			c0.816-0.192,1.225-0.698,1.652-1.236c0.151-0.188,0.327-0.408,0.56-0.665c0.298-0.334,1.057-0.804,1.591-0.992
			c11.114-3.823,21.8-6.218,30.897-6.928l1.474-0.143c3.194-0.331,11.338-1.175,14.732-0.894c8.372,0.677,15.598,8.556,15.899,8.886
			c0.935,1.036,1.91,1.457,2.566,1.681c0.327,0.11,0.71,0.171,1.106,0.171c0.86,0,1.628-0.269,2.109-0.743
			C605.342,105.101,605.465,103.709,604.562,102.469z M211.724,428.923c0.004-0.004,0.012-0.004,0.017-0.008l0.065,0.064
			L211.724,428.923z M394.981,429.077L394.981,429.077L394.981,429.077L394.981,429.077z"/>
	</g>
</g>
<g>
</g>
<g>
</g>
<g>
</g>
<g>
</g>
<g>
</g>
<g>
</g>
<g>
</g>
<g>
</g>
<g>
</g>
<g>
</g>
<g>
</g>
<g>
</g>
<g>
</g>
<g>
</g>
<g>
</g>
</svg>
